<?xml version="1.0" encoding="UTF-8"?>
<!DOCTYPE svg PUBLIC "-//W3C//DTD SVG 1.1//EN" "http://www.w3.org/Graphics/SVG/1.1/DTD/svg11.dtd">
<svg xmlns="http://www.w3.org/2000/svg" version="1.1" width="292px" height="292px" style="shape-rendering:geometricPrecision; text-rendering:geometricPrecision; image-rendering:optimizeQuality; fill-rule:evenodd; clip-rule:evenodd" xmlns:xlink="http://www.w3.org/1999/xlink">
<g><path style="opacity:1" fill="#fbfbfb" d="M -0.5,-0.5 C 41.1667,-0.5 82.8333,-0.5 124.5,-0.5C 121.512,1.14021 118.179,1.97354 114.5,2C 115.623,3.04373 116.956,3.71039 118.5,4C 114.988,5.31436 111.321,6.31436 107.5,7C 106.944,7.38258 106.611,7.88258 106.5,8.5C 106.5,9.16667 106.167,9.5 105.5,9.5C 99.5769,10.1382 94.2436,12.1382 89.5,15.5C 67.7121,24.9964 49.2121,38.9964 34,57.5C 27.1458,67.1633 20.9792,77.1633 15.5,87.5C 10.8096,87.9403 9.47626,90.2736 11.5,94.5C 9.95467,95.4519 8.28801,95.7852 6.5,95.5C 3.85656,100.577 3.85656,105.743 6.5,111C 5.87291,113.135 5.37291,115.302 5,117.5C 3.89037,119.037 2.39037,119.703 0.5,119.5C 0.8064,122.385 0.473067,125.052 -0.5,127.5C -0.5,84.8333 -0.5,42.1667 -0.5,-0.5 Z"/></g>
<g><path style="opacity:1" fill="#fcfbfb" d="M 124.5,-0.5 C 180.167,-0.5 235.833,-0.5 291.5,-0.5C 291.5,46.5 291.5,93.5 291.5,140.5C 290.735,139.34 289.735,138.34 288.5,137.5C 287.692,139.423 287.192,141.423 287,143.5C 286.281,138.799 286.447,134.133 287.5,129.5C 284.684,123.78 284.017,117.78 285.5,111.5C 283.042,106.457 281.376,101.124 280.5,95.5C 279.5,95.5 278.5,95.5 277.5,95.5C 277.5,99.1667 277.5,102.833 277.5,106.5C 259.652,52.9838 223.318,19.6505 168.5,6.5C 167.5,6.5 166.5,6.5 165.5,6.5C 151.565,3.01191 137.565,2.67857 123.5,5.5C 117.771,6.17694 112.105,7.17694 106.5,8.5C 106.611,7.88258 106.944,7.38258 107.5,7C 111.321,6.31436 114.988,5.31436 118.5,4C 116.956,3.71039 115.623,3.04373 114.5,2C 118.179,1.97354 121.512,1.14021 124.5,-0.5 Z"/></g>
<g><path style="opacity:1" fill="#b34141" d="M 165.5,6.5 C 151.51,5.83371 137.51,5.50038 123.5,5.5C 137.565,2.67857 151.565,3.01191 165.5,6.5 Z"/></g>
<g><path style="opacity:1" fill="#cb1b24" d="M 123.5,5.5 C 137.51,5.50038 151.51,5.83371 165.5,6.5C 166.5,6.5 167.5,6.5 168.5,6.5C 168.577,7.74975 169.244,8.58309 170.5,9C 169.667,9.16667 168.833,9.33333 168,9.5C 151.816,6.91261 135.649,6.91261 119.5,9.5C 118.167,9.33333 116.833,9.16667 115.5,9C 118.401,8.12486 121.068,6.95819 123.5,5.5 Z"/></g>
<g><path style="opacity:1" fill="#ab3a3b" d="M 105.5,9.5 C 102.471,11.5262 99.138,13.1929 95.5,14.5C 93.604,15.4656 91.604,15.7989 89.5,15.5C 94.2436,12.1382 99.5769,10.1382 105.5,9.5 Z"/></g>
<g><path style="opacity:1" fill="#853137" d="M 271.5,137.5 C 271.566,146.852 271.232,156.185 270.5,165.5C 258.828,224.339 223.828,260.839 165.5,275C 106.804,282.066 61.9702,260.566 31,210.5C 14.3166,178.006 10.4833,144.006 19.5,108.5C 20.038,106.883 20.3713,105.216 20.5,103.5C 38.3599,56.8158 71.6932,27.6491 120.5,16C 188.665,9.48233 236.498,37.3157 264,99.5C 267.937,111.897 270.437,124.563 271.5,137.5 Z"/></g>
<g><path style="opacity:1" fill="#f9eaea" d="M 277.5,133.5 C 277.5,142.167 277.5,150.833 277.5,159.5C 270.579,205.854 247.246,241.354 207.5,266C 194.588,272.302 181.255,277.136 167.5,280.5C 167.167,280.5 166.833,280.5 166.5,280.5C 154.903,282.149 143.236,282.816 131.5,282.5C 124.778,281.827 118.112,280.827 111.5,279.5C 59.2527,262.995 25.9194,228.328 11.5,175.5C 9.74915,159.561 9.08248,143.561 9.5,127.5C 9.83333,127.5 10.1667,127.5 10.5,127.5C 10.0414,138.919 10.708,150.252 12.5,161.5C 13.7554,150.33 13.7554,139.164 12.5,128C 14.7314,122.22 16.3981,116.22 17.5,110C 17.8361,108.97 18.5028,108.47 19.5,108.5C 10.4833,144.006 14.3166,178.006 31,210.5C 61.9702,260.566 106.804,282.066 165.5,275C 223.828,260.839 258.828,224.339 270.5,165.5C 273.254,156.828 274.088,147.828 273,138.5C 272.617,137.944 272.117,137.611 271.5,137.5C 270.437,124.563 267.937,111.897 264,99.5C 236.498,37.3157 188.665,9.48233 120.5,16C 71.6932,27.6491 38.3599,56.8158 20.5,103.5C 20.6602,101.801 20.4935,100.134 20,98.5C 19.1841,99.8228 18.0174,100.489 16.5,100.5C 34.2538,53.2456 67.5871,23.4122 116.5,11C 186.161,2.41068 236.328,29.5773 267,92.5C 271.852,105.961 275.352,119.628 277.5,133.5 Z"/></g>
<g><path style="opacity:1" fill="#f7f7f7" d="M 78.5,61.5 C 79.8333,62.1667 81.1667,62.8333 82.5,63.5C 83.1738,65.0245 84.1738,66.3578 85.5,67.5C 84.286,69.0691 82.6193,69.9024 80.5,70C 81.5,70.3333 82.5,70.6667 83.5,71C 80.6397,73.3603 77.6397,75.527 74.5,77.5C 73.7542,78.7362 73.4208,80.0695 73.5,81.5C 72.5,81.5 71.5,81.5 70.5,81.5C 70.5,82.8333 70.5,84.1667 70.5,85.5C 63.5114,95.8104 57.8447,106.81 53.5,118.5C 50.706,126.309 48.0393,133.809 45.5,141C 47.426,146.699 47.926,152.533 47,158.5C 45.6439,159.38 44.1439,159.714 42.5,159.5C 36.8351,159.12 32.0017,160.787 28,164.5C 27.5045,166.473 27.3379,168.473 27.5,170.5C 26.9569,170.56 26.6236,170.893 26.5,171.5C 28.7214,174.662 30.0547,178.162 30.5,182C 29.6919,182.308 29.0253,182.808 28.5,183.5C 29.7853,186.021 30.4519,188.687 30.5,191.5C 29.5,191.5 28.5,191.5 27.5,191.5C 27.665,188.15 27.4983,184.817 27,181.5C 25.6015,182.051 24.2682,182.384 23,182.5C 22.8442,179.809 22.0109,177.476 20.5,175.5C 18.5012,159.538 18.1679,143.538 19.5,127.5C 20.9806,121.225 22.1473,114.891 23,108.5C 25.0922,107.148 26.5922,105.314 27.5,103C 27.0946,102.055 26.428,101.388 25.5,101C 26.8333,100.333 27.8333,99.3333 28.5,98C 28.0137,95.9734 28.0137,93.8067 28.5,91.5C 30.3229,87.3333 32.3229,83.3333 34.5,79.5C 35.5,79.5 36.5,79.5 37.5,79.5C 37.3505,78.448 37.5172,77.448 38,76.5C 39.5067,75.4954 40.6733,74.162 41.5,72.5C 43.4698,73.4431 44.9698,72.7764 46,70.5C 47.0113,71.3366 48.1779,71.67 49.5,71.5C 49.7274,76.5436 49.394,81.5436 48.5,86.5C 48.5565,87.737 49.0565,88.737 50,89.5C 51.0871,86.3088 51.9204,82.9755 52.5,79.5C 54.1727,77.9137 56.1727,77.2471 58.5,77.5C 58.3433,78.8734 58.51,80.2068 59,81.5C 60.6667,82.5 62.3333,83.5 64,84.5C 63.6557,82.7424 63.1557,80.9091 62.5,79C 62.4934,77.1878 63.16,75.6878 64.5,74.5C 64.3764,73.8933 64.0431,73.56 63.5,73.5C 64.072,72.0267 64.9054,70.6934 66,69.5C 67.0084,69.9817 68.175,70.1484 69.5,70C 68.4829,71.0495 68.3162,72.2161 69,73.5C 69.8996,72.2298 71.0663,71.2298 72.5,70.5C 69.5673,68.2619 69.9007,67.2619 73.5,67.5C 73.3433,66.1266 73.51,64.7932 74,63.5C 75.2975,64.7836 76.4642,64.6169 77.5,63C 76.2881,61.8932 76.6214,61.3932 78.5,61.5 Z"/></g>
<g><path style="opacity:1" fill="#fbfbfa" d="M 291.5,140.5 C 291.5,190.833 291.5,241.167 291.5,291.5C 251.5,291.5 211.5,291.5 171.5,291.5C 170.878,290.373 170.045,289.373 169,288.5C 154.093,289.291 139.093,289.291 124,288.5C 119.061,287.182 114.061,286.182 109,285.5C 107.092,285.285 105.926,284.285 105.5,282.5C 126.12,288.277 146.786,288.943 167.5,284.5C 169.5,284.5 171.5,284.5 173.5,284.5C 178.771,285.202 183.437,284.035 187.5,281C 191.79,280.077 196.123,279.577 200.5,279.5C 200.351,278.448 200.517,277.448 201,276.5C 202.785,275.76 204.618,275.093 206.5,274.5C 207.386,273.675 207.719,272.675 207.5,271.5C 242.623,251.347 265.957,221.681 277.5,182.5C 280.049,179.034 281.549,175.034 282,170.5C 282.826,158.659 282.659,146.993 281.5,135.5C 281.795,133.265 281.461,131.265 280.5,129.5C 280.5,128.833 280.5,128.167 280.5,127.5C 279.718,120.482 278.718,113.482 277.5,106.5C 277.5,102.833 277.5,99.1667 277.5,95.5C 278.5,95.5 279.5,95.5 280.5,95.5C 281.376,101.124 283.042,106.457 285.5,111.5C 284.017,117.78 284.684,123.78 287.5,129.5C 286.447,134.133 286.281,138.799 287,143.5C 287.192,141.423 287.692,139.423 288.5,137.5C 289.735,138.34 290.735,139.34 291.5,140.5 Z"/></g>
<g><path style="opacity:1" fill="#be1c22" d="M 280.5,127.5 C 280.5,128.167 280.5,128.833 280.5,129.5C 280.693,141.197 280.193,152.864 279,164.5C 278.667,165.167 278.333,165.833 278,166.5C 277.503,164.19 277.337,161.857 277.5,159.5C 277.5,150.833 277.5,142.167 277.5,133.5C 277.5,131.5 277.5,129.5 277.5,127.5C 278.5,127.5 279.5,127.5 280.5,127.5 Z"/></g>
<g><path style="opacity:1" fill="#1c1b1b" d="M 40.5,121.5 C 41.6935,121.97 42.3601,122.97 42.5,124.5C 42.3333,125.5 42.1667,126.5 42,127.5C 39.9944,130.992 37.8278,134.326 35.5,137.5C 36.7012,140.872 38.5345,143.872 41,146.5C 41.7494,147.635 41.5827,148.635 40.5,149.5C 37.0215,144.188 32.6882,139.688 27.5,136C 30.334,135.955 32.834,135.121 35,133.5C 36.5737,129.354 38.407,125.354 40.5,121.5 Z"/></g>
<g><path style="opacity:1" fill="#f8ddda" d="M 28.5,91.5 C 28.0137,93.8067 28.0137,95.9734 28.5,98C 27.8333,99.3333 26.8333,100.333 25.5,101C 26.428,101.388 27.0946,102.055 27.5,103C 26.5922,105.314 25.0922,107.148 23,108.5C 22.1473,114.891 20.9806,121.225 19.5,127.5C 18.1679,143.538 18.5012,159.538 20.5,175.5C 13.2799,146.588 15.9466,118.588 28.5,91.5 Z"/></g>
<g><path style="opacity:1" fill="#aa2b28" d="M 9.5,127.5 C 9.08248,143.561 9.74915,159.561 11.5,175.5C 7.73519,161.531 6.56853,147.197 8,132.5C 8.19808,130.618 8.69808,128.952 9.5,127.5 Z"/></g>
<g><path style="opacity:1" fill="#faf8f8" d="M 20.5,103.5 C 20.3713,105.216 20.038,106.883 19.5,108.5C 18.5028,108.47 17.8361,108.97 17.5,110C 16.3981,116.22 14.7314,122.22 12.5,128C 13.7554,139.164 13.7554,150.33 12.5,161.5C 10.708,150.252 10.0414,138.919 10.5,127.5C 10.4013,124.763 10.7347,122.096 11.5,119.5C 12.3149,118.571 13.1482,117.571 14,116.5C 14.427,111.41 15.2604,106.41 16.5,101.5C 16.5,101.167 16.5,100.833 16.5,100.5C 18.0174,100.489 19.1841,99.8228 20,98.5C 20.4935,100.134 20.6602,101.801 20.5,103.5 Z"/></g>
<g><path style="opacity:1" fill="#99282a" d="M 52.5,127.5 C 51.1998,139.832 51.1998,152.165 52.5,164.5C 51.0472,157.891 50.3805,151.058 50.5,144C 50.6667,139.833 50.8333,135.667 51,131.5C 51.21,129.942 51.71,128.609 52.5,127.5 Z"/></g>
<g><path style="opacity:1" fill="#c91c27" d="M 9.5,127.5 C 8.69808,128.952 8.19808,130.618 8,132.5C 6.56853,147.197 7.73519,161.531 11.5,175.5C 11.9537,178.865 12.6203,182.198 13.5,185.5C 13.3333,186.5 13.1667,187.5 13,188.5C 10.2492,181.434 8.24923,174.101 7,166.5C 5.16591,151.492 5.16591,136.492 7,121.5C 7.81471,119.377 8.81471,117.377 10,115.5C 9.84181,119.459 9.67514,123.459 9.5,127.5 Z"/></g>
<g><path style="opacity:1" fill="#f4d3d9" d="M 271.5,137.5 C 272.117,137.611 272.617,137.944 273,138.5C 274.088,147.828 273.254,156.828 270.5,165.5C 271.232,156.185 271.566,146.852 271.5,137.5 Z"/></g>
<g><path style="opacity:1" fill="#fcfbfa" d="M 15.5,87.5 C -4.66314,141.544 2.50352,191.544 37,237.5C 55.5005,259.474 78.3339,274.474 105.5,282.5C 105.926,284.285 107.092,285.285 109,285.5C 114.061,286.182 119.061,287.182 124,288.5C 139.093,289.291 154.093,289.291 169,288.5C 170.045,289.373 170.878,290.373 171.5,291.5C 114.167,291.5 56.8333,291.5 -0.5,291.5C -0.5,236.833 -0.5,182.167 -0.5,127.5C 0.473067,125.052 0.8064,122.385 0.5,119.5C 2.39037,119.703 3.89037,119.037 5,117.5C 5.37291,115.302 5.87291,113.135 6.5,111C 3.85656,105.743 3.85656,100.577 6.5,95.5C 8.28801,95.7852 9.95467,95.4519 11.5,94.5C 9.47626,90.2736 10.8096,87.9403 15.5,87.5 Z"/></g>
<g><path style="opacity:1" fill="#f8d0d0" d="M 281.5,135.5 C 282.659,146.993 282.826,158.659 282,170.5C 281.549,175.034 280.049,179.034 277.5,182.5C 280.955,167.045 282.288,151.378 281.5,135.5 Z"/></g>
<g><path style="opacity:1" fill="#1f1e1e" d="M 42.5,159.5 C 42.762,160.978 42.4287,162.311 41.5,163.5C 38.5499,164.488 35.5499,165.321 32.5,166C 31.6198,167.356 31.2865,168.856 31.5,170.5C 35.8422,170.261 40.1756,169.927 44.5,169.5C 44.5,171.167 44.5,172.833 44.5,174.5C 40.1524,174.909 35.819,175.076 31.5,175C 29.9297,173.603 28.5964,172.103 27.5,170.5C 27.3379,168.473 27.5045,166.473 28,164.5C 32.0017,160.787 36.8351,159.12 42.5,159.5 Z"/></g>
<g><path style="opacity:1" fill="#f9ebea" d="M 167.5,58.5 C 179.113,62.4604 189.779,68.127 199.5,75.5C 216.686,90.8757 227.353,109.876 231.5,132.5C 234.647,169.352 221.647,198.852 192.5,221C 155.382,243.451 119.715,241.451 85.5,215C 72.306,203.114 63.306,188.614 58.5,171.5C 55.7372,156.92 55.0705,142.254 56.5,127.5C 64.8746,92.7926 85.8746,69.4592 119.5,57.5C 135.597,54.5046 151.597,54.838 167.5,58.5 Z"/></g>
<g><path style="opacity:1" fill="#71363a" d="M 226.5,138.5 C 226.652,149.284 225.652,159.95 223.5,170.5C 221.121,176.107 218.621,181.774 216,187.5C 215.051,189.093 213.885,190.426 212.5,191.5C 211.872,194.09 210.705,196.423 209,198.5C 182.554,228.933 150.054,237.766 111.5,225C 70.5565,203.678 54.0565,170.178 62,124.5C 72.5677,88.9304 96.0677,67.7637 132.5,61C 176.891,58.7646 207.058,78.2646 223,119.5C 224.386,125.817 225.552,132.151 226.5,138.5 Z"/></g>
<g><path style="opacity:1" fill="#f6f5f5" d="M 178.5,70.5 C 213.2,89.8947 228.366,119.561 224,159.5C 221.845,170.8 218.012,181.466 212.5,191.5C 182.671,230.035 145.671,238.868 101.5,218C 89.239,210.241 79.5723,200.074 72.5,187.5C 69.9948,179.814 67.9948,171.98 66.5,164C 67.9438,156.994 69.7772,157.161 72,164.5C 72.4217,160.795 73.5884,160.128 75.5,162.5C 79.0742,163.774 82.7409,163.607 86.5,162C 87.1667,160.667 87.8333,159.333 88.5,158C 90.8098,157.503 93.1432,157.337 95.5,157.5C 96.7383,157.81 96.7383,158.31 95.5,159C 96.549,159.492 97.549,159.326 98.5,158.5C 99.9876,160.271 101.821,161.604 104,162.5C 104.824,161.192 105.324,159.692 105.5,158C 104.906,157.536 104.239,157.369 103.5,157.5C 103.5,155.833 103.5,154.167 103.5,152.5C 104.29,151.391 104.79,150.058 105,148.5C 105.667,152.5 106.333,152.5 107,148.5C 107.667,149.833 108.333,151.167 109,152.5C 109.81,150.694 110.976,149.194 112.5,148C 112.056,146.238 111.556,146.405 111,148.5C 110.501,144.514 110.334,140.514 110.5,136.5C 112.762,131.368 116.762,129.368 122.5,130.5C 123.694,143.779 118.361,153.446 106.5,159.5C 106.833,160.5 107.5,161.167 108.5,161.5C 115.5,157.833 120.833,152.5 124.5,145.5C 127.886,151.606 132.219,156.94 137.5,161.5C 138.583,160.635 138.749,159.635 138,158.5C 129.253,151.198 125.753,142.031 127.5,131C 132.562,129.709 136.062,131.542 138,136.5C 138.175,140.211 138.675,143.878 139.5,147.5C 140.84,146.312 141.507,144.812 141.5,143C 141.082,138.962 140.082,135.128 138.5,131.5C 139.822,131.33 140.989,131.663 142,132.5C 142.309,131.234 142.809,130.067 143.5,129C 141.744,128.798 140.078,128.298 138.5,127.5C 138.667,127.167 138.833,126.833 139,126.5C 140.356,127.38 141.856,127.714 143.5,127.5C 143.232,125.901 143.566,124.568 144.5,123.5C 145.742,125.25 147.242,126.917 149,128.5C 149.711,130.899 149.544,133.232 148.5,135.5C 143.971,138.318 142.471,142.318 144,147.5C 144.689,148.357 145.522,149.023 146.5,149.5C 146.147,155.798 148.647,160.465 154,163.5C 154.5,163.167 155,162.833 155.5,162.5C 154.185,160.684 152.685,159.017 151,157.5C 150.278,154.739 150.445,152.073 151.5,149.5C 153.435,148.85 155.435,148.517 157.5,148.5C 158.458,148.953 159.292,149.619 160,150.5C 160.297,153.914 160.964,157.247 162,160.5C 163.129,162.141 164.629,163.141 166.5,163.5C 165.851,164.606 165.517,165.606 165.5,166.5C 164.833,166.167 164.167,165.833 163.5,165.5C 161.343,166.05 159.343,166.717 157.5,167.5C 154.223,167.216 151.057,167.549 148,168.5C 147.5,186.497 147.333,204.497 147.5,222.5C 149.167,222.5 150.833,222.5 152.5,222.5C 152.334,212.494 152.5,202.494 153,192.5C 153.667,193.167 154.333,193.833 155,194.5C 155.5,203.494 155.666,212.494 155.5,221.5C 156.833,221.5 158.167,221.5 159.5,221.5C 159.5,212.5 159.5,203.5 159.5,194.5C 160.33,203.658 160.83,212.991 161,222.5C 161.333,221.833 161.667,221.167 162,220.5C 162.427,223.493 163.594,223.993 165.5,222C 164.833,221.667 164.167,221.333 163.5,221C 164.737,220.768 165.737,220.268 166.5,219.5C 170.241,219.076 173.241,217.409 175.5,214.5C 177.726,216.18 179.393,215.847 180.5,213.5C 181.469,212.691 182.302,211.691 183,210.5C 183.333,197.5 183.667,184.5 184,171.5C 185.011,172.337 186.178,172.67 187.5,172.5C 187.5,183.833 187.5,195.167 187.5,206.5C 189.39,206.703 190.89,206.037 192,204.5C 192.5,193.839 192.667,183.172 192.5,172.5C 193.5,172.5 194.5,172.5 195.5,172.5C 195.5,170.833 195.5,169.167 195.5,167.5C 191.241,167.003 187.241,167.669 183.5,169.5C 182.702,169.043 182.369,168.376 182.5,167.5C 181.594,166.035 180.261,165.035 178.5,164.5C 178.693,165.688 178.193,167.022 177,168.5C 175.933,167.057 174.766,165.724 173.5,164.5C 173.957,163.702 174.624,163.369 175.5,163.5C 179.157,163.026 179.324,161.693 176,159.5C 175.833,158.333 175.667,157.167 175.5,156C 176.811,152.011 178.144,148.011 179.5,144C 178.612,141.438 177.279,139.104 175.5,137C 177.535,131.703 176.535,127.203 172.5,123.5C 173.234,122.292 173.567,120.959 173.5,119.5C 178.245,122.091 183.079,122.091 188,119.5C 188.667,107.833 188.667,96.1667 188,84.5C 185.914,81.9061 183.414,79.9061 180.5,78.5C 180.635,75.5825 179.968,72.9158 178.5,70.5 Z"/></g>
<g><path style="opacity:1" fill="#201f20" d="M 197.5,124.5 C 198.793,126.364 198.793,128.364 197.5,130.5C 192.052,132.729 192.219,134.396 198,135.5C 199.163,138.827 197.997,140.827 194.5,141.5C 195.991,142.244 197.491,142.91 199,143.5C 199.667,146.5 199.667,149.5 199,152.5C 197.054,153.747 195.22,155.08 193.5,156.5C 194.952,159.122 197.119,160.788 200,161.5C 200.667,160.833 200.667,160.167 200,159.5C 198.155,158.95 196.655,157.95 195.5,156.5C 197.5,156.167 199.5,155.833 201.5,155.5C 202.809,153.024 204.642,151.024 207,149.5C 207.483,148.552 207.649,147.552 207.5,146.5C 202.477,147.087 200.811,145.087 202.5,140.5C 203.159,143.824 205.159,145.157 208.5,144.5C 208.66,142.801 208.494,141.134 208,139.5C 205.825,138.745 203.659,137.912 201.5,137C 208.19,133.77 211.356,135.937 211,143.5C 212.333,144.833 213.667,144.833 215,143.5C 215.192,141.423 215.692,139.423 216.5,137.5C 217.452,139.045 217.785,140.712 217.5,142.5C 216.535,145.32 214.535,146.653 211.5,146.5C 211.5,147.833 211.5,149.167 211.5,150.5C 214.595,150.626 216.428,152.293 217,155.5C 217.814,157.902 217.647,160.235 216.5,162.5C 212.43,148.973 210.097,149.307 209.5,163.5C 208.511,159.893 208.177,156.226 208.5,152.5C 206.61,152.297 205.11,152.963 204,154.5C 202.921,157.063 202.421,159.729 202.5,162.5C 198.56,162.93 195.06,161.93 192,159.5C 190.039,160.897 187.872,161.897 185.5,162.5C 184.833,162.167 184.167,161.833 183.5,161.5C 184.908,160.757 186.241,159.923 187.5,159C 186.062,158.781 184.729,158.281 183.5,157.5C 183.833,157.167 184.167,156.833 184.5,156.5C 186.93,155.75 189.264,155.417 191.5,155.5C 189.821,154.218 187.987,153.218 186,152.5C 185.333,149.5 185.333,146.5 186,143.5C 189.512,142.457 192.679,140.791 195.5,138.5C 196.833,137.833 196.833,137.167 195.5,136.5C 193.465,137.041 191.465,137.708 189.5,138.5C 187.657,141.422 184.99,142.755 181.5,142.5C 181.5,141.5 181.5,140.5 181.5,139.5C 183.288,139.785 184.955,139.452 186.5,138.5C 185.5,137.167 184.5,135.833 183.5,134.5C 183.833,134.167 184.167,133.833 184.5,133.5C 186.618,134.946 188.951,135.613 191.5,135.5C 191.5,134.5 191.5,133.5 191.5,132.5C 185.765,133.179 184.098,130.845 186.5,125.5C 187.429,126.689 187.762,128.022 187.5,129.5C 188.5,129.5 189.5,129.5 190.5,129.5C 191.5,120.167 192.5,120.167 193.5,129.5C 194.5,129.5 195.5,129.5 196.5,129.5C 196.216,127.585 196.549,125.919 197.5,124.5 Z"/></g>
<g><path style="opacity:1" fill="#f4f0f0" d="M 178.5,70.5 C 174.788,70.0392 171.121,69.3725 167.5,68.5C 167.5,69.5 167.5,70.5 167.5,71.5C 168.978,71.238 170.311,71.5713 171.5,72.5C 171.043,73.2975 170.376,73.6309 169.5,73.5C 168.791,72.596 167.791,72.2627 166.5,72.5C 163.588,71.1231 160.754,69.4565 158,67.5C 157.228,67.6448 156.561,67.9781 156,68.5C 153.984,66.2494 151.651,65.916 149,67.5C 144.024,65.295 138.857,64.4617 133.5,65C 134.328,65.9147 135.328,66.5814 136.5,67C 135.944,67.3826 135.611,67.8826 135.5,68.5C 133.871,66.9397 132.704,67.273 132,69.5C 131.692,68.6919 131.192,68.0253 130.5,67.5C 129.167,67.8333 127.833,68.1667 126.5,68.5C 124.807,66.7214 122.807,66.2214 120.5,67C 117.044,68.986 113.378,70.486 109.5,71.5C 110.665,72.5836 111.998,73.4169 113.5,74C 111.934,74.6082 110.6,75.4415 109.5,76.5C 104.329,78.3462 99.8294,81.3462 96,85.5C 95.3333,96.8333 95.3333,108.167 96,119.5C 99.6203,121.183 103.454,121.85 107.5,121.5C 106.531,122.309 105.698,123.309 105,124.5C 104.817,127.365 104.317,130.031 103.5,132.5C 103.665,129.482 103.498,126.482 103,123.5C 101.2,125.317 99.0336,126.484 96.5,127C 98.1341,127.494 99.8008,127.66 101.5,127.5C 101.5,128.5 101.5,129.5 101.5,130.5C 99.396,130.201 97.396,130.534 95.5,131.5C 98.3418,132.004 99.6751,133.671 99.5,136.5C 98.0222,136.238 96.6888,136.571 95.5,137.5C 99.2267,139.225 101.893,138.225 103.5,134.5C 104.141,135.482 104.807,136.482 105.5,137.5C 105.438,139.8 105.105,142.133 104.5,144.5C 104.747,145.713 105.414,146.38 106.5,146.5C 107.209,147.404 108.209,147.737 109.5,147.5C 109.185,143.629 109.518,139.962 110.5,136.5C 110.334,140.514 110.501,144.514 111,148.5C 111.556,146.405 112.056,146.238 112.5,148C 110.976,149.194 109.81,150.694 109,152.5C 108.333,151.167 107.667,149.833 107,148.5C 106.333,152.5 105.667,152.5 105,148.5C 104.79,150.058 104.29,151.391 103.5,152.5C 103.665,149.482 103.498,146.482 103,143.5C 101.736,141.393 99.9032,140.393 97.5,140.5C 96.0813,139.549 94.4147,139.216 92.5,139.5C 92.0805,137.906 91.4138,136.406 90.5,135C 91.562,131.211 91.7287,127.377 91,123.5C 90.044,124.894 88.7106,125.561 87,125.5C 85.4504,125.05 83.9504,124.883 82.5,125C 83.0219,125.561 83.3552,126.228 83.5,127C 82.5,128.667 81.5,130.333 80.5,132C 83.0812,133.49 83.9145,135.657 83,138.5C 79.0597,140.15 74.893,140.983 70.5,141C 69.6667,141.833 68.8333,142.667 68,143.5C 67.1717,148.202 67.3384,152.869 68.5,157.5C 69.3275,153.204 69.8275,148.871 70,144.5C 70.7504,143.874 71.5838,143.374 72.5,143C 81.5,142.333 90.5,142.333 99.5,143C 100.252,143.671 100.586,144.504 100.5,145.5C 100.174,149.884 100.508,154.217 101.5,158.5C 102.107,158.376 102.44,158.043 102.5,157.5C 102.833,157.5 103.167,157.5 103.5,157.5C 104.239,157.369 104.906,157.536 105.5,158C 105.324,159.692 104.824,161.192 104,162.5C 101.821,161.604 99.9876,160.271 98.5,158.5C 97.549,159.326 96.549,159.492 95.5,159C 96.7383,158.31 96.7383,157.81 95.5,157.5C 98.3906,154.274 99.0573,150.607 97.5,146.5C 96.914,146.709 96.414,147.043 96,147.5C 96.6713,153.672 94.1713,156.006 88.5,154.5C 89.3467,153.155 90.5134,152.155 92,151.5C 92.7203,149.888 92.5536,148.388 91.5,147C 87.8333,146.333 84.1667,146.333 80.5,147C 79.4464,148.388 79.2797,149.888 80,151.5C 81.586,152.376 83.086,153.376 84.5,154.5C 81.9659,155.777 79.4659,155.777 77,154.5C 76.502,151.518 76.3354,148.518 76.5,145.5C 74.8762,145.36 73.7096,146.027 73,147.5C 71.9246,151.067 72.758,154.067 75.5,156.5C 78.9755,157.08 82.3088,157.913 85.5,159C 81.8625,159.759 78.5291,160.925 75.5,162.5C 73.5884,160.128 72.4217,160.795 72,164.5C 69.7772,157.161 67.9438,156.994 66.5,164C 67.9948,171.98 69.9948,179.814 72.5,187.5C 61.5411,167.387 58.7078,146.054 64,123.5C 78.9277,79.9435 109.428,59.7769 155.5,63C 163.618,64.407 171.285,66.907 178.5,70.5 Z"/></g>
<g><path style="opacity:1" fill="#1c1c1c" d="M 138.5,131.5 C 140.082,135.128 141.082,138.962 141.5,143C 141.507,144.812 140.84,146.312 139.5,147.5C 138.675,143.878 138.175,140.211 138,136.5C 136.062,131.542 132.562,129.709 127.5,131C 125.753,142.031 129.253,151.198 138,158.5C 138.749,159.635 138.583,160.635 137.5,161.5C 132.219,156.94 127.886,151.606 124.5,145.5C 120.833,152.5 115.5,157.833 108.5,161.5C 107.5,161.167 106.833,160.5 106.5,159.5C 118.361,153.446 123.694,143.779 122.5,130.5C 116.762,129.368 112.762,131.368 110.5,136.5C 109.518,139.962 109.185,143.629 109.5,147.5C 108.209,147.737 107.209,147.404 106.5,146.5C 104.557,134.506 109.557,128.34 121.5,128C 123.064,121.346 125.064,121.013 127.5,127C 131.41,128.053 135.077,129.553 138.5,131.5 Z"/></g>
<g><path style="opacity:1" fill="#1f1f1f" d="M 215.5,128.5 C 212.134,129.342 209.801,131.342 208.5,134.5C 207.491,131.663 205.491,130.33 202.5,130.5C 202.343,129.127 202.51,127.793 203,126.5C 203.383,127.056 203.883,127.389 204.5,127.5C 204.56,128.043 204.893,128.376 205.5,128.5C 207.104,121.004 208.771,120.837 210.5,128C 211.167,128.667 211.833,128.667 212.5,128C 214.218,123.254 215.218,123.421 215.5,128.5 Z"/></g>
<g><path style="opacity:1" fill="#f5f5f6" d="M 166.5,72.5 C 165.778,72.9175 165.278,73.5842 165,74.5C 164.501,78.8206 164.334,83.1539 164.5,87.5C 162.5,87.5 160.5,87.5 158.5,87.5C 158.666,82.1563 158.499,76.8229 158,71.5C 157.047,69.4078 155.714,69.0745 154,70.5C 153.333,87.1667 153.333,103.833 154,120.5C 155.049,121.517 156.216,121.684 157.5,121C 158.485,111.917 158.818,102.751 158.5,93.5C 160.5,93.5 162.5,93.5 164.5,93.5C 164.334,102.506 164.5,111.506 165,120.5C 166.458,121.747 167.958,121.747 169.5,120.5C 170.816,104.77 170.816,89.103 169.5,73.5C 170.376,73.6309 171.043,73.2975 171.5,72.5C 170.311,71.5713 168.978,71.238 167.5,71.5C 167.5,70.5 167.5,69.5 167.5,68.5C 171.121,69.3725 174.788,70.0392 178.5,70.5C 179.968,72.9158 180.635,75.5825 180.5,78.5C 178.412,77.0605 176.079,76.3939 173.5,76.5C 173.5,90.8333 173.5,105.167 173.5,119.5C 173.567,120.959 173.234,122.292 172.5,123.5C 168.777,124.524 168.943,125.857 173,127.5C 173.875,128.873 174.375,130.373 174.5,132C 172.27,136.061 170.27,140.228 168.5,144.5C 168.621,145.894 168.954,147.228 169.5,148.5C 171.053,149.439 172.387,150.606 173.5,152C 171.852,156.283 172.519,160.116 175.5,163.5C 174.624,163.369 173.957,163.702 173.5,164.5C 174.766,165.724 175.933,167.057 177,168.5C 178.193,167.022 178.693,165.688 178.5,164.5C 180.261,165.035 181.594,166.035 182.5,167.5C 181.178,167.33 180.011,167.663 179,168.5C 178.333,183.167 178.333,197.833 179,212.5C 179.383,213.056 179.883,213.389 180.5,213.5C 179.393,215.847 177.726,216.18 175.5,214.5C 175.831,206.804 175.497,199.138 174.5,191.5C 172.517,189.016 170.35,186.683 168,184.5C 167.501,180.514 167.334,176.514 167.5,172.5C 168.5,172.5 169.5,172.5 170.5,172.5C 170.18,175.898 170.513,179.232 171.5,182.5C 172.451,183.326 173.451,183.492 174.5,183C 175.833,178 175.833,173 174.5,168C 170.775,167.24 167.108,167.407 163.5,168.5C 162.336,174.472 162.17,180.472 163,186.5C 170.976,193.837 173.476,202.837 170.5,213.5C 169.5,213.5 168.5,213.5 167.5,213.5C 167.666,207.824 167.499,202.157 167,196.5C 165.667,195.167 164.333,195.167 163,196.5C 162.5,204.159 162.334,211.826 162.5,219.5C 163.833,219.5 165.167,219.5 166.5,219.5C 165.737,220.268 164.737,220.768 163.5,221C 164.167,221.333 164.833,221.667 165.5,222C 163.594,223.993 162.427,223.493 162,220.5C 161.667,221.167 161.333,221.833 161,222.5C 160.83,212.991 160.33,203.658 159.5,194.5C 159.579,193.07 159.246,191.736 158.5,190.5C 159.754,187.024 160.421,183.358 160.5,179.5C 160.333,176.167 160.167,172.833 160,169.5C 159.583,168.244 158.75,167.577 157.5,167.5C 159.343,166.717 161.343,166.05 163.5,165.5C 164.167,165.833 164.833,166.167 165.5,166.5C 165.517,165.606 165.851,164.606 166.5,163.5C 165.235,160.537 163.902,157.537 162.5,154.5C 164.566,150.865 166.233,147.032 167.5,143C 167.532,141.029 166.698,139.529 165,138.5C 164.87,134.049 164.204,129.716 163,125.5C 161.308,123.755 159.475,123.422 157.5,124.5C 162.899,129.652 162.733,134.652 157,139.5C 155.029,142.616 155.195,145.616 157.5,148.5C 155.435,148.517 153.435,148.85 151.5,149.5C 152.741,147.432 153.741,145.265 154.5,143C 153.5,140.667 152.5,138.333 151.5,136C 153.174,131.361 152.174,127.361 148.5,124C 147.207,123.51 145.873,123.343 144.5,123.5C 143.566,124.568 143.232,125.901 143.5,127.5C 141.856,127.714 140.356,127.38 139,126.5C 138.833,126.833 138.667,127.167 138.5,127.5C 140.078,128.298 141.744,128.798 143.5,129C 142.809,130.067 142.309,131.234 142,132.5C 140.989,131.663 139.822,131.33 138.5,131.5C 135.077,129.553 131.41,128.053 127.5,127C 125.064,121.013 123.064,121.346 121.5,128C 109.557,128.34 104.557,134.506 106.5,146.5C 105.414,146.38 104.747,145.713 104.5,144.5C 105.105,142.133 105.438,139.8 105.5,137.5C 104.807,136.482 104.141,135.482 103.5,134.5C 103.5,133.833 103.5,133.167 103.5,132.5C 104.317,130.031 104.817,127.365 105,124.5C 105.698,123.309 106.531,122.309 107.5,121.5C 108.531,120.751 109.698,120.085 111,119.5C 111.667,105.5 111.667,91.5 111,77.5C 110.617,76.944 110.117,76.6107 109.5,76.5C 110.6,75.4415 111.934,74.6082 113.5,74C 111.998,73.4169 110.665,72.5836 109.5,71.5C 113.378,70.486 117.044,68.986 120.5,67C 122.807,66.2214 124.807,66.7214 126.5,68.5C 127.833,68.1667 129.167,67.8333 130.5,67.5C 131.192,68.0253 131.692,68.6919 132,69.5C 132.704,67.273 133.871,66.9397 135.5,68.5C 135.611,67.8826 135.944,67.3826 136.5,67C 135.328,66.5814 134.328,65.9147 133.5,65C 138.857,64.4617 144.024,65.295 149,67.5C 151.651,65.916 153.984,66.2494 156,68.5C 156.561,67.9781 157.228,67.6448 158,67.5C 160.754,69.4565 163.588,71.1231 166.5,72.5 Z"/></g>
<g><path style="opacity:1" fill="#af282b" d="M 119.5,54.5 C 121.527,54.3379 123.527,54.5045 125.5,55C 123.389,55.8447 121.389,56.678 119.5,57.5C 85.8746,69.4592 64.8746,92.7926 56.5,127.5C 53.4412,142.325 54.1079,156.991 58.5,171.5C 63.306,188.614 72.306,203.114 85.5,215C 119.715,241.451 155.382,243.451 192.5,221C 221.647,198.852 234.647,169.352 231.5,132.5C 231.335,129.482 231.502,126.482 232,123.5C 232.934,124.858 233.768,126.192 234.5,127.5C 234.557,128.609 234.89,129.609 235.5,130.5C 239.221,168.206 226.554,199.04 197.5,223C 189.17,228.33 180.504,232.83 171.5,236.5C 167.298,237.132 163.298,238.132 159.5,239.5C 148.822,240.701 138.155,240.701 127.5,239.5C 86.7863,230.12 61.7863,205.12 52.5,164.5C 51.1998,152.165 51.1998,139.832 52.5,127.5C 52.5079,124.455 52.8413,121.455 53.5,118.5C 57.8447,106.81 63.5114,95.8104 70.5,85.5C 81.3516,73.161 94.3516,63.661 109.5,57C 112.72,55.6476 116.053,54.8143 119.5,54.5 Z"/></g>
<g><path style="opacity:1" fill="#9d9e9f" d="M 115.5,167.5 C 118.388,167.22 119.888,168.553 120,171.5C 121.11,181.488 122.11,191.488 123,201.5C 125.157,190.875 126.991,180.208 128.5,169.5C 130.913,166.623 132.747,166.956 134,170.5C 134.374,169.584 134.874,168.75 135.5,168C 138.817,167.502 142.15,167.335 145.5,167.5C 145.5,169.167 145.5,170.833 145.5,172.5C 143.167,172.5 140.833,172.5 138.5,172.5C 138.5,177.833 138.5,183.167 138.5,188.5C 140.5,188.5 142.5,188.5 144.5,188.5C 144.5,190.167 144.5,191.833 144.5,193.5C 142.5,193.5 140.5,193.5 138.5,193.5C 138.334,201.84 138.5,210.173 139,218.5C 141.041,219.423 143.208,219.756 145.5,219.5C 145.67,220.822 145.337,221.989 144.5,223C 141.106,223.752 137.773,223.585 134.5,222.5C 133.667,205.843 133.167,189.177 133,172.5C 130.227,186.802 127.561,201.135 125,215.5C 124.64,217.421 123.806,219.088 122.5,220.5C 121.522,220.023 120.689,219.357 120,218.5C 118.413,202.804 116.58,187.138 114.5,171.5C 114.623,170.075 114.957,168.742 115.5,167.5 Z"/></g>
<g><path style="opacity:1" fill="#9d9ea1" d="M 109.5,167.5 C 110.822,167.33 111.989,167.663 113,168.5C 113.667,183.833 113.667,199.167 113,214.5C 111.644,215.38 110.144,215.714 108.5,215.5C 108.183,199.422 108.516,183.422 109.5,167.5 Z"/></g>
<g><path style="opacity:1" fill="#9e9fa3" d="M 94.5,167.5 C 96.7761,167.756 97.9428,169.09 98,171.5C 99.2086,176.793 100.209,182.126 101,187.5C 101.333,181.167 101.667,174.833 102,168.5C 103.333,167.167 104.667,167.167 106,168.5C 106.5,183.163 106.667,197.83 106.5,212.5C 104.089,212.863 102.589,211.863 102,209.5C 101.048,203.74 99.7149,198.074 98,192.5C 97.6667,196.833 97.3333,201.167 97,205.5C 96,206.833 95,206.833 94,205.5C 93.1876,192.758 93.3542,180.091 94.5,167.5 Z"/></g>
<g><path style="opacity:1" fill="#9d9ea0" d="M 182.5,167.5 C 182.369,168.376 182.702,169.043 183.5,169.5C 187.241,167.669 191.241,167.003 195.5,167.5C 195.5,169.167 195.5,170.833 195.5,172.5C 194.5,172.5 193.5,172.5 192.5,172.5C 192.667,183.172 192.5,193.839 192,204.5C 190.89,206.037 189.39,206.703 187.5,206.5C 187.5,195.167 187.5,183.833 187.5,172.5C 186.178,172.67 185.011,172.337 184,171.5C 183.667,184.5 183.333,197.5 183,210.5C 182.302,211.691 181.469,212.691 180.5,213.5C 179.883,213.389 179.383,213.056 179,212.5C 178.333,197.833 178.333,183.167 179,168.5C 180.011,167.663 181.178,167.33 182.5,167.5 Z"/></g>
<g><path style="opacity:1" fill="#9e9ea1" d="M 71.5,167.5 C 72.675,167.281 73.675,167.614 74.5,168.5C 76.764,173.459 78.9306,178.459 81,183.5C 81.9078,185.439 83.4078,186.439 85.5,186.5C 86.1981,180.533 86.6981,174.533 87,168.5C 88,167.167 89,167.167 90,168.5C 90.6667,177.167 90.6667,185.833 90,194.5C 89.4806,195.516 88.6473,196.182 87.5,196.5C 84.5935,195.103 82.0935,193.103 80,190.5C 76.7108,184.257 73.7108,177.924 71,171.5C 70.4209,170.072 70.5876,168.738 71.5,167.5 Z"/></g>
<g><path style="opacity:1" fill="#9c9d9f" d="M 157.5,167.5 C 158.75,167.577 159.583,168.244 160,169.5C 160.167,172.833 160.333,176.167 160.5,179.5C 160.421,183.358 159.754,187.024 158.5,190.5C 159.246,191.736 159.579,193.07 159.5,194.5C 159.5,203.5 159.5,212.5 159.5,221.5C 158.167,221.5 156.833,221.5 155.5,221.5C 155.666,212.494 155.5,203.494 155,194.5C 154.333,193.833 153.667,193.167 153,192.5C 152.5,202.494 152.334,212.494 152.5,222.5C 150.833,222.5 149.167,222.5 147.5,222.5C 147.333,204.497 147.5,186.497 148,168.5C 151.057,167.549 154.223,167.216 157.5,167.5 Z"/></g>
<g><path style="opacity:1" fill="#9b9a9d" d="M 197.5,167.5 C 198.822,167.33 199.989,167.663 201,168.5C 202.746,172.327 204.746,175.993 207,179.5C 208.659,175.868 210.326,172.201 212,168.5C 214.125,167.149 215.292,167.815 215.5,170.5C 211.662,181.68 205.662,191.513 197.5,200C 196.552,200.483 195.552,200.649 194.5,200.5C 194.343,199.127 194.51,197.793 195,196.5C 198.233,192.937 201.067,189.104 203.5,185C 202.079,180.657 200.246,176.491 198,172.5C 197.506,170.866 197.34,169.199 197.5,167.5 Z"/></g>
<g><path style="opacity:1" fill="#f8f9fb" d="M 152.5,172.5 C 153.5,172.5 154.5,172.5 155.5,172.5C 155.5,177.167 155.5,181.833 155.5,186.5C 154.5,186.5 153.5,186.5 152.5,186.5C 152.5,181.833 152.5,177.167 152.5,172.5 Z"/></g>
<g><path style="opacity:1" fill="#a0a0a3" d="M 175.5,214.5 C 173.241,217.409 170.241,219.076 166.5,219.5C 165.167,219.5 163.833,219.5 162.5,219.5C 162.334,211.826 162.5,204.159 163,196.5C 164.333,195.167 165.667,195.167 167,196.5C 167.499,202.157 167.666,207.824 167.5,213.5C 168.5,213.5 169.5,213.5 170.5,213.5C 173.476,202.837 170.976,193.837 163,186.5C 162.17,180.472 162.336,174.472 163.5,168.5C 167.108,167.407 170.775,167.24 174.5,168C 175.833,173 175.833,178 174.5,183C 173.451,183.492 172.451,183.326 171.5,182.5C 170.513,179.232 170.18,175.898 170.5,172.5C 169.5,172.5 168.5,172.5 167.5,172.5C 167.334,176.514 167.501,180.514 168,184.5C 170.35,186.683 172.517,189.016 174.5,191.5C 175.497,199.138 175.831,206.804 175.5,214.5 Z"/></g>
<g><path style="opacity:1" fill="#f7d7d7" d="M 226.5,138.5 C 227.656,146.323 227.823,154.323 227,162.5C 226.507,165.675 225.34,168.341 223.5,170.5C 225.652,159.95 226.652,149.284 226.5,138.5 Z"/></g>
<g><path style="opacity:1" fill="#242323" d="M 95.5,157.5 C 93.1432,157.337 90.8098,157.503 88.5,158C 87.8333,159.333 87.1667,160.667 86.5,162C 82.7409,163.607 79.0742,163.774 75.5,162.5C 78.5291,160.925 81.8625,159.759 85.5,159C 82.3088,157.913 78.9755,157.08 75.5,156.5C 72.758,154.067 71.9246,151.067 73,147.5C 73.7096,146.027 74.8762,145.36 76.5,145.5C 76.3354,148.518 76.502,151.518 77,154.5C 79.4659,155.777 81.9659,155.777 84.5,154.5C 83.086,153.376 81.586,152.376 80,151.5C 79.2797,149.888 79.4464,148.388 80.5,147C 84.1667,146.333 87.8333,146.333 91.5,147C 92.5536,148.388 92.7203,149.888 92,151.5C 90.5134,152.155 89.3467,153.155 88.5,154.5C 94.1713,156.006 96.6713,153.672 96,147.5C 96.414,147.043 96.914,146.709 97.5,146.5C 99.0573,150.607 98.3906,154.274 95.5,157.5 Z"/></g>
<g><path style="opacity:1" fill="#7d7b7c" d="M 100.5,145.5 C 101.167,149.5 101.833,153.5 102.5,157.5C 102.44,158.043 102.107,158.376 101.5,158.5C 100.508,154.217 100.174,149.884 100.5,145.5 Z"/></g>
<g><path style="opacity:1" fill="#dbd9da" d="M 190.5,151.5 C 191.978,151.238 193.311,151.571 194.5,152.5C 193.833,152.833 193.167,153.167 192.5,153.5C 191.287,153.253 190.62,152.586 190.5,151.5 Z"/></g>
<g><path style="opacity:1" fill="#d4d2d3" d="M 188.5,148.5 C 192.102,148.678 192.102,149.678 188.5,151.5C 187.438,150.575 187.438,149.575 188.5,148.5 Z"/></g>
<g><path style="opacity:1" fill="#e3e1e2" d="M 194.5,147.5 C 195.643,147.908 196.643,148.575 197.5,149.5C 195.604,150.639 194.604,149.973 194.5,147.5 Z"/></g>
<g><path style="opacity:1" fill="#c9c7c8" d="M 194.5,143.5 C 195.995,143.415 196.995,144.081 197.5,145.5C 194.623,146.911 193.623,146.244 194.5,143.5 Z"/></g>
<g><path style="opacity:1" fill="#e2e0e1" d="M 188.5,144.5 C 191.012,145.216 191.012,146.216 188.5,147.5C 187.438,146.575 187.438,145.575 188.5,144.5 Z"/></g>
<g><path style="opacity:1" fill="#fccecc" d="M 56.5,127.5 C 55.0705,142.254 55.7372,156.92 58.5,171.5C 54.1079,156.991 53.4412,142.325 56.5,127.5 Z"/></g>
<g><path style="opacity:1" fill="#181718" d="M 92.5,139.5 C 91.8333,139.167 91.1667,138.833 90.5,138.5C 89.3052,138.322 88.1385,137.989 87,137.5C 85.9701,137.836 85.4701,138.503 85.5,139.5C 89.2984,140.483 93.2984,140.817 97.5,140.5C 99.9032,140.393 101.736,141.393 103,143.5C 103.498,146.482 103.665,149.482 103.5,152.5C 103.5,154.167 103.5,155.833 103.5,157.5C 103.167,157.5 102.833,157.5 102.5,157.5C 101.833,153.5 101.167,149.5 100.5,145.5C 100.586,144.504 100.252,143.671 99.5,143C 90.5,142.333 81.5,142.333 72.5,143C 71.5838,143.374 70.7504,143.874 70,144.5C 69.8275,148.871 69.3275,153.204 68.5,157.5C 67.3384,152.869 67.1717,148.202 68,143.5C 68.8333,142.667 69.6667,141.833 70.5,141C 74.893,140.983 79.0597,140.15 83,138.5C 83.9145,135.657 83.0812,133.49 80.5,132C 81.5,130.333 82.5,128.667 83.5,127C 83.3552,126.228 83.0219,125.561 82.5,125C 83.9504,124.883 85.4504,125.05 87,125.5C 88.7106,125.561 90.044,124.894 91,123.5C 91.7287,127.377 91.562,131.211 90.5,135C 91.4138,136.406 92.0805,137.906 92.5,139.5 Z"/></g>
<g><path style="opacity:1" fill="#d8d6d7" d="M 82.5,148.5 C 84.924,148.192 87.2573,148.526 89.5,149.5C 89.0004,150.881 88.0004,151.547 86.5,151.5C 84.3472,151.439 83.0138,150.439 82.5,148.5 Z"/></g>
<g><path style="opacity:1" fill="#777576" d="M 90.5,138.5 C 91.1667,138.833 91.8333,139.167 92.5,139.5C 94.4147,139.216 96.0813,139.549 97.5,140.5C 93.2984,140.817 89.2984,140.483 85.5,139.5C 87.4147,139.784 89.0813,139.451 90.5,138.5 Z"/></g>
<g><path style="opacity:1" fill="#222222" d="M 144.5,123.5 C 145.873,123.343 147.207,123.51 148.5,124C 152.174,127.361 153.174,131.361 151.5,136C 152.5,138.333 153.5,140.667 154.5,143C 153.741,145.265 152.741,147.432 151.5,149.5C 150.445,152.073 150.278,154.739 151,157.5C 152.685,159.017 154.185,160.684 155.5,162.5C 155,162.833 154.5,163.167 154,163.5C 148.647,160.465 146.147,155.798 146.5,149.5C 145.522,149.023 144.689,148.357 144,147.5C 142.471,142.318 143.971,138.318 148.5,135.5C 149.544,133.232 149.711,130.899 149,128.5C 147.242,126.917 145.742,125.25 144.5,123.5 Z"/></g>
<g><path style="opacity:1" fill="#f3f3f3" d="M 147.5,140.5 C 148.5,140.5 149.5,140.5 150.5,140.5C 150.662,142.527 150.495,144.527 150,146.5C 148.989,147.337 147.822,147.67 146.5,147.5C 146.298,145.05 146.631,142.717 147.5,140.5 Z"/></g>
<g><path style="opacity:1" fill="#eae9ea" d="M 90.5,138.5 C 89.0813,139.451 87.4147,139.784 85.5,139.5C 85.4701,138.503 85.9701,137.836 87,137.5C 88.1385,137.989 89.3052,138.322 90.5,138.5 Z"/></g>
<g><path style="opacity:1" fill="#1d1c1c" d="M 172.5,123.5 C 176.535,127.203 177.535,131.703 175.5,137C 177.279,139.104 178.612,141.438 179.5,144C 178.144,148.011 176.811,152.011 175.5,156C 175.667,157.167 175.833,158.333 176,159.5C 179.324,161.693 179.157,163.026 175.5,163.5C 172.519,160.116 171.852,156.283 173.5,152C 172.387,150.606 171.053,149.439 169.5,148.5C 168.954,147.228 168.621,145.894 168.5,144.5C 170.27,140.228 172.27,136.061 174.5,132C 174.375,130.373 173.875,128.873 173,127.5C 168.943,125.857 168.777,124.524 172.5,123.5 Z"/></g>
<g><path style="opacity:1" fill="#eae9e9" d="M 172.5,140.5 C 173.822,140.33 174.989,140.663 176,141.5C 176.667,143.5 176.667,145.5 176,147.5C 174.667,148.833 173.333,148.833 172,147.5C 171.297,145.071 171.463,142.738 172.5,140.5 Z"/></g>
<g><path style="opacity:1" fill="#211f20" d="M 69.5,124.5 C 72.1296,125.428 74.7963,126.428 77.5,127.5C 70.8333,128.833 70.8333,130.167 77.5,131.5C 69.7204,133.101 69.7204,135.101 77.5,137.5C 73.2726,139.458 70.106,138.458 68,134.5C 68.7421,131.29 69.2421,127.957 69.5,124.5 Z"/></g>
<g><path style="opacity:1" fill="#201f20" d="M 166.5,163.5 C 164.629,163.141 163.129,162.141 162,160.5C 160.964,157.247 160.297,153.914 160,150.5C 159.292,149.619 158.458,148.953 157.5,148.5C 155.195,145.616 155.029,142.616 157,139.5C 162.733,134.652 162.899,129.652 157.5,124.5C 159.475,123.422 161.308,123.755 163,125.5C 164.204,129.716 164.87,134.049 165,138.5C 166.698,139.529 167.532,141.029 167.5,143C 166.233,147.032 164.566,150.865 162.5,154.5C 163.902,157.537 165.235,160.537 166.5,163.5 Z"/></g>
<g><path style="opacity:1" fill="#ebeaea" d="M 160.5,140.5 C 164.473,141.075 165.473,143.242 163.5,147C 158.148,147.175 157.148,145.009 160.5,140.5 Z"/></g>
<g><path style="opacity:1" fill="#1d1d1d" d="M 103.5,132.5 C 103.5,133.167 103.5,133.833 103.5,134.5C 101.893,138.225 99.2267,139.225 95.5,137.5C 96.6888,136.571 98.0222,136.238 99.5,136.5C 99.6751,133.671 98.3418,132.004 95.5,131.5C 97.396,130.534 99.396,130.201 101.5,130.5C 101.5,129.5 101.5,128.5 101.5,127.5C 99.8008,127.66 98.1341,127.494 96.5,127C 99.0336,126.484 101.2,125.317 103,123.5C 103.498,126.482 103.665,129.482 103.5,132.5 Z"/></g>
<g><path style="opacity:1" fill="#e7e7e7" d="M 197.5,124.5 C 200.302,123.364 202.968,123.864 205.5,126C 204.944,126.383 204.611,126.883 204.5,127.5C 203.883,127.389 203.383,127.056 203,126.5C 202.51,127.793 202.343,129.127 202.5,130.5C 205.491,130.33 207.491,131.663 208.5,134.5C 209.801,131.342 212.134,129.342 215.5,128.5C 217.045,129.23 217.878,130.563 218,132.5C 218.808,136.027 218.641,139.36 217.5,142.5C 217.785,140.712 217.452,139.045 216.5,137.5C 215.692,139.423 215.192,141.423 215,143.5C 213.667,144.833 212.333,144.833 211,143.5C 211.356,135.937 208.19,133.77 201.5,137C 203.659,137.912 205.825,138.745 208,139.5C 208.494,141.134 208.66,142.801 208.5,144.5C 205.159,145.157 203.159,143.824 202.5,140.5C 200.811,145.087 202.477,147.087 207.5,146.5C 207.649,147.552 207.483,148.552 207,149.5C 204.642,151.024 202.809,153.024 201.5,155.5C 199.5,155.833 197.5,156.167 195.5,156.5C 196.655,157.95 198.155,158.95 200,159.5C 200.667,160.167 200.667,160.833 200,161.5C 197.119,160.788 194.952,159.122 193.5,156.5C 195.22,155.08 197.054,153.747 199,152.5C 199.667,149.5 199.667,146.5 199,143.5C 197.491,142.91 195.991,142.244 194.5,141.5C 197.997,140.827 199.163,138.827 198,135.5C 192.219,134.396 192.052,132.729 197.5,130.5C 198.793,128.364 198.793,126.364 197.5,124.5 Z"/></g>
<g><path style="opacity:1" fill="#f4f2f2" d="M 238.5,109.5 C 239.082,112.272 240.082,114.939 241.5,117.5C 240.305,117.866 239.639,118.699 239.5,120C 240.09,122.257 241.423,123.924 243.5,125C 242.748,125.671 242.414,126.504 242.5,127.5C 241.577,126.697 240.577,126.53 239.5,127C 243.163,129.878 243.163,132.544 239.5,135C 241.134,135.494 242.801,135.66 244.5,135.5C 244.276,137.787 243.609,139.953 242.5,142C 242.833,142.5 243.167,143 243.5,143.5C 243.698,140.215 245.365,138.548 248.5,138.5C 250.056,135.551 249.722,132.884 247.5,130.5C 248.993,129.859 249.993,128.859 250.5,127.5C 251.158,128.398 251.824,129.398 252.5,130.5C 253.386,129.675 253.719,128.675 253.5,127.5C 254.833,127.5 256.167,127.5 257.5,127.5C 258.167,127.833 258.833,128.167 259.5,128.5C 260.209,129.404 261.209,129.737 262.5,129.5C 263.035,133.499 263.701,137.499 264.5,141.5C 265.081,138.625 266.081,135.958 267.5,133.5C 266.048,132.06 265.048,130.394 264.5,128.5C 265.995,128.585 266.995,127.919 267.5,126.5C 265.849,121.3 264.849,115.967 264.5,110.5C 275.956,156.344 266.456,197.344 236,233.5C 222.78,247.566 207.28,258.233 189.5,265.5C 190.502,263.989 191.169,262.322 191.5,260.5C 189.801,260.34 188.134,260.506 186.5,261C 186.833,261.333 187.167,261.667 187.5,262C 184.873,264.017 182.373,263.85 180,261.5C 179.667,261.833 179.333,262.167 179,262.5C 177.956,261.377 177.29,260.044 177,258.5C 176.764,260.119 175.931,261.119 174.5,261.5C 175.268,259.1 175.602,256.767 175.5,254.5C 176.981,255.48 178.315,256.647 179.5,258C 181.635,258.635 183.635,258.301 185.5,257C 183.792,254.957 181.792,253.29 179.5,252C 182.668,247.839 181.668,245.339 176.5,244.5C 176.5,243.5 176.5,242.5 176.5,241.5C 180.49,239.836 184.49,238.169 188.5,236.5C 186.979,235.063 185.145,234.396 183,234.5C 179.279,235.889 175.446,236.556 171.5,236.5C 180.504,232.83 189.17,228.33 197.5,223C 226.554,199.04 239.221,168.206 235.5,130.5C 239.018,127.31 239.018,123.81 235.5,120C 237.519,116.794 238.519,113.294 238.5,109.5 Z"/></g>
<g><path style="opacity:1" fill="#1d1e1d" d="M 235.5,191.5 C 240.343,193.418 244.677,196.084 248.5,199.5C 248.113,200.72 247.28,201.387 246,201.5C 243.567,199.862 241.067,198.696 238.5,198C 248.147,206.04 246.813,208.707 234.5,206C 237.167,207.667 239.833,209.333 242.5,211C 242.002,212.158 241.169,212.991 240,213.5C 235.716,211.383 231.549,209.05 227.5,206.5C 229.523,200.842 233.023,199.842 238,203.5C 238.167,203.167 238.333,202.833 238.5,202.5C 236.167,200.833 234.167,198.833 232.5,196.5C 233.26,194.64 234.26,192.973 235.5,191.5 Z"/></g>
<g><path style="opacity:1" fill="#1b1c1c" d="M 239.5,180.5 C 245.026,180.179 250.36,180.512 255.5,181.5C 254.56,183.572 253.06,185.239 251,186.5C 250.502,188.527 250.669,190.527 251.5,192.5C 251.444,193.737 250.944,194.737 250,195.5C 246.333,192.167 242.667,188.833 239,185.5C 238.616,183.803 238.782,182.137 239.5,180.5 Z"/></g>
<g><path style="opacity:1" fill="#c8c9c9" d="M 243.5,183.5 C 247.748,182.9 248.915,184.233 247,187.5C 245.373,186.468 244.207,185.134 243.5,183.5 Z"/></g>
<g><path style="opacity:1" fill="#828282" d="M 239.5,180.5 C 245.013,179.184 250.68,179.184 256.5,180.5C 256.376,181.107 256.043,181.44 255.5,181.5C 250.36,180.512 245.026,180.179 239.5,180.5 Z"/></g>
<g><path style="opacity:1" fill="#1d1c1c" d="M 244.5,159.5 C 249.43,160.648 254.43,161.315 259.5,161.5C 259.66,163.199 259.494,164.866 259,166.5C 256.214,168.142 253.381,169.642 250.5,171C 252.74,171.977 255.073,172.477 257.5,172.5C 257.5,173.833 257.5,175.167 257.5,176.5C 252.5,175.833 247.5,175.167 242.5,174.5C 242.34,172.801 242.506,171.134 243,169.5C 245.979,168.453 248.812,167.119 251.5,165.5C 249.535,164.708 247.535,164.041 245.5,163.5C 244.571,162.311 244.238,160.978 244.5,159.5 Z"/></g>
<g><path style="opacity:1" fill="#2c2b2b" d="M 254.5,128.5 C 257.129,132.027 257.962,136.027 257,140.5C 255.333,141.5 253.667,142.5 252,143.5C 251.505,145.473 251.338,147.473 251.5,149.5C 249.365,149.853 248.032,149.02 247.5,147C 249.017,143.984 251.35,141.818 254.5,140.5C 255.505,136.521 255.505,132.521 254.5,128.5 Z"/></g>
<g><path style="opacity:1" fill="#171717" d="M 242.5,127.5 C 243.561,131.094 244.895,131.26 246.5,128C 247.793,127.51 249.127,127.343 250.5,127.5C 249.993,128.859 248.993,129.859 247.5,130.5C 249.722,132.884 250.056,135.551 248.5,138.5C 245.365,138.548 243.698,140.215 243.5,143.5C 243.167,143 242.833,142.5 242.5,142C 243.609,139.953 244.276,137.787 244.5,135.5C 242.801,135.66 241.134,135.494 239.5,135C 243.163,132.544 243.163,129.878 239.5,127C 240.577,126.53 241.577,126.697 242.5,127.5 Z"/></g>
<g><path style="opacity:1" fill="#2d2d2f" d="M 259.5,133.5 C 261.337,133.639 261.67,134.306 260.5,135.5C 259.702,135.043 259.369,134.376 259.5,133.5 Z"/></g>
<g><path style="opacity:1" fill="#202120" d="M 264.5,128.5 C 265.048,130.394 266.048,132.06 267.5,133.5C 266.081,135.958 265.081,138.625 264.5,141.5C 263.701,137.499 263.035,133.499 262.5,129.5C 262.345,126.147 263.012,125.814 264.5,128.5 Z"/></g>
<g><path style="opacity:1" fill="#f5f4f3" d="M 53.5,118.5 C 52.8413,121.455 52.5079,124.455 52.5,127.5C 51.71,128.609 51.21,129.942 51,131.5C 50.8333,135.667 50.6667,139.833 50.5,144C 50.3805,151.058 51.0472,157.891 52.5,164.5C 61.7863,205.12 86.7863,230.12 127.5,239.5C 128.263,240.268 129.263,240.768 130.5,241C 134.167,241.167 137.833,241.333 141.5,241.5C 147.733,241.62 153.733,240.953 159.5,239.5C 163.298,238.132 167.298,237.132 171.5,236.5C 175.446,236.556 179.279,235.889 183,234.5C 185.145,234.396 186.979,235.063 188.5,236.5C 184.49,238.169 180.49,239.836 176.5,241.5C 176.5,242.5 176.5,243.5 176.5,244.5C 173.5,245.167 170.5,245.833 167.5,246.5C 168.343,251.206 169.51,255.872 171,260.5C 172.011,261.337 173.178,261.67 174.5,261.5C 175.931,261.119 176.764,260.119 177,258.5C 177.29,260.044 177.956,261.377 179,262.5C 179.333,262.167 179.667,261.833 180,261.5C 182.373,263.85 184.873,264.017 187.5,262C 187.167,261.667 186.833,261.333 186.5,261C 188.134,260.506 189.801,260.34 191.5,260.5C 191.169,262.322 190.502,263.989 189.5,265.5C 129.894,285.892 80.3937,271.558 41,222.5C 30.8569,208.22 24.0236,192.553 20.5,175.5C 22.0109,177.476 22.8442,179.809 23,182.5C 24.2682,182.384 25.6015,182.051 27,181.5C 27.4983,184.817 27.665,188.15 27.5,191.5C 28.5,191.5 29.5,191.5 30.5,191.5C 30.4519,188.687 29.7853,186.021 28.5,183.5C 29.0253,182.808 29.6919,182.308 30.5,182C 30.0547,178.162 28.7214,174.662 26.5,171.5C 26.6236,170.893 26.9569,170.56 27.5,170.5C 28.5964,172.103 29.9297,173.603 31.5,175C 35.819,175.076 40.1524,174.909 44.5,174.5C 44.5,172.833 44.5,171.167 44.5,169.5C 40.1756,169.927 35.8422,170.261 31.5,170.5C 31.2865,168.856 31.6198,167.356 32.5,166C 35.5499,165.321 38.5499,164.488 41.5,163.5C 42.4287,162.311 42.762,160.978 42.5,159.5C 44.1439,159.714 45.6439,159.38 47,158.5C 47.926,152.533 47.426,146.699 45.5,141C 48.0393,133.809 50.706,126.309 53.5,118.5 Z"/></g>
<g><path style="opacity:1" fill="#1e1c1d" d="M 54.5,206.5 C 62.0328,206.529 65.5328,210.196 65,217.5C 59.9105,225.393 54.9105,225.393 50,217.5C 49.3333,215.5 49.3333,213.5 50,211.5C 51.7073,209.963 53.2073,208.296 54.5,206.5 Z"/></g>
<g><path style="opacity:1" fill="#efeced" d="M 55.5,211.5 C 60.1225,210.408 61.9558,212.075 61,216.5C 57.6778,220.792 55.1778,220.459 53.5,215.5C 53.7517,213.927 54.4183,212.594 55.5,211.5 Z"/></g>
<g><path style="opacity:1" fill="#1a1918" d="M 50.5,191.5 C 53.6159,195.024 56.2825,199.024 58.5,203.5C 57.6721,204.415 56.6721,205.081 55.5,205.5C 54.8524,203.851 53.8524,202.518 52.5,201.5C 49.7328,203.299 46.8994,204.966 44,206.5C 42.6988,205.902 41.8655,204.902 41.5,203.5C 44.2081,201.389 47.0414,199.389 50,197.5C 50.3334,195.953 49.8334,194.62 48.5,193.5C 49.2427,192.818 49.9094,192.151 50.5,191.5 Z"/></g>
<g><path style="opacity:1" fill="#1c1c1c" d="M 42.5,176.5 C 44.9124,176.244 46.5791,177.244 47.5,179.5C 45.6944,182.472 43.6944,185.305 41.5,188C 44.0256,187.096 46.6922,186.762 49.5,187C 50.3366,188.011 50.67,189.178 50.5,190.5C 45.826,191.669 41.326,193.336 37,195.5C 35.6986,193.635 35.3653,191.635 36,189.5C 42.6384,182.428 41.805,181.095 33.5,185.5C 32.5853,184.672 31.9186,183.672 31.5,182.5C 35.0337,180.234 38.7004,178.234 42.5,176.5 Z"/></g>
<g><path style="opacity:1" fill="#1e1b1c" d="M 75.5,224.5 C 77.5635,225.058 79.2302,226.225 80.5,228C 78.4696,233.091 76.6362,238.258 75,243.5C 72.5122,240.788 70.6789,237.955 69.5,235C 67.0588,234.964 65.0588,234.131 63.5,232.5C 67.5286,229.823 71.5286,227.156 75.5,224.5 Z"/></g>
<g><path style="opacity:1" fill="#f4f2f3" d="M 74.5,229.5 C 75.522,230.892 75.1887,232.225 73.5,233.5C 72.6919,233.192 72.0253,232.692 71.5,232C 72.9423,231.623 73.9423,230.79 74.5,229.5 Z"/></g>
<g><path style="opacity:1" fill="#201e1e" d="M 221.5,212.5 C 225.778,215.44 229.778,218.773 233.5,222.5C 233.023,223.478 232.357,224.311 231.5,225C 228.093,225.482 224.76,225.482 221.5,225C 223.351,226.684 225.018,228.517 226.5,230.5C 225.855,231.646 225.022,232.646 224,233.5C 220.505,230.838 217.338,227.838 214.5,224.5C 214.167,224.833 213.833,225.167 213.5,225.5C 216.19,229.52 217.69,233.853 218,238.5C 217.311,239.357 216.478,240.023 215.5,240.5C 212.94,238.727 210.607,236.727 208.5,234.5C 208.167,234.833 207.833,235.167 207.5,235.5C 208.794,237.88 209.794,240.38 210.5,243C 209.924,244.714 208.757,245.881 207,246.5C 203.292,242.623 199.458,238.957 195.5,235.5C 196.869,233.876 198.536,233.376 200.5,234C 204.854,239.662 205.52,238.829 202.5,231.5C 203.167,230.167 204.167,229.167 205.5,228.5C 208.094,229.592 210.261,231.259 212,233.5C 211.651,230.938 210.817,228.438 209.5,226C 211.667,223.833 213.833,221.667 216,219.5C 224.965,221.928 226.132,220.428 219.5,215C 220.381,214.292 221.047,213.458 221.5,212.5 Z"/></g>
<g><path style="opacity:1" fill="#1d1c1c" d="M 89.5,234.5 C 92.4469,235.973 95.4469,237.473 98.5,239C 99.731,240.183 99.731,241.349 98.5,242.5C 96.5866,241.627 94.7533,240.627 93,239.5C 92.3076,240.025 91.8076,240.692 91.5,241.5C 93.0284,242.861 94.6951,244.028 96.5,245C 95.9535,245.925 95.2868,246.758 94.5,247.5C 93.452,246.617 92.2853,245.95 91,245.5C 89.3333,246.833 87.6667,248.167 86,249.5C 84.7753,249.138 83.6086,248.638 82.5,248C 84.9867,243.525 87.32,239.025 89.5,234.5 Z"/></g>
<g><path style="opacity:1" fill="#f8c7cb" d="M 127.5,239.5 C 138.155,240.701 148.822,240.701 159.5,239.5C 153.733,240.953 147.733,241.62 141.5,241.5C 137.833,241.333 134.167,241.167 130.5,241C 129.263,240.768 128.263,240.268 127.5,239.5 Z"/></g>
<g><path style="opacity:1" fill="#1c1a1b" d="M 190.5,237.5 C 196.545,237.71 199.878,240.876 200.5,247C 196.932,255.313 191.765,256.48 185,250.5C 182.959,244.28 184.792,239.947 190.5,237.5 Z"/></g>
<g><path style="opacity:1" fill="#e8e6e7" d="M 189.5,241.5 C 194.846,242.013 196.513,244.847 194.5,250C 190.466,250.976 188.466,249.309 188.5,245C 188.648,243.744 188.982,242.577 189.5,241.5 Z"/></g>
<g><path style="opacity:1" fill="#1e1d1d" d="M 176.5,244.5 C 181.668,245.339 182.668,247.839 179.5,252C 181.792,253.29 183.792,254.957 185.5,257C 183.635,258.301 181.635,258.635 179.5,258C 178.315,256.647 176.981,255.48 175.5,254.5C 175.602,256.767 175.268,259.1 174.5,261.5C 173.178,261.67 172.011,261.337 171,260.5C 169.51,255.872 168.343,251.206 167.5,246.5C 170.5,245.833 173.5,245.167 176.5,244.5 Z"/></g>
<g><path style="opacity:1" fill="#d5d4d4" d="M 174.5,247.5 C 175.995,247.415 176.995,248.081 177.5,249.5C 176.15,250.95 174.484,251.617 172.5,251.5C 172.527,249.801 173.194,248.467 174.5,247.5 Z"/></g>
<g><path style="opacity:1" fill="#b1292d" d="M 123.5,5.5 C 121.068,6.95819 118.401,8.12486 115.5,9C 116.833,9.16667 118.167,9.33333 119.5,9.5C 135.649,6.91261 151.816,6.91261 168,9.5C 168.833,9.33333 169.667,9.16667 170.5,9C 169.244,8.58309 168.577,7.74975 168.5,6.5C 223.318,19.6505 259.652,52.9838 277.5,106.5C 278.718,113.482 279.718,120.482 280.5,127.5C 279.5,127.5 278.5,127.5 277.5,127.5C 277.5,129.5 277.5,131.5 277.5,133.5C 275.352,119.628 271.852,105.961 267,92.5C 236.328,29.5773 186.161,2.41068 116.5,11C 67.5871,23.4122 34.2538,53.2456 16.5,100.5C 16.5,100.833 16.5,101.167 16.5,101.5C 13.9201,107.142 12.2534,113.142 11.5,119.5C 10.7347,122.096 10.4013,124.763 10.5,127.5C 10.1667,127.5 9.83333,127.5 9.5,127.5C 9.67514,123.459 9.84181,119.459 10,115.5C 8.81471,117.377 7.81471,119.377 7,121.5C 5.16591,136.492 5.16591,151.492 7,166.5C 8.24923,174.101 10.2492,181.434 13,188.5C 13.1667,187.5 13.3333,186.5 13.5,185.5C 12.6203,182.198 11.9537,178.865 11.5,175.5C 25.9194,228.328 59.2527,262.995 111.5,279.5C 106.493,279.01 105.826,279.843 109.5,282C 128.695,285.53 148.029,286.363 167.5,284.5C 146.786,288.943 126.12,288.277 105.5,282.5C 78.3339,274.474 55.5005,259.474 37,237.5C 2.50352,191.544 -4.66314,141.544 15.5,87.5C 20.9792,77.1633 27.1458,67.1633 34,57.5C 49.2121,38.9964 67.7121,24.9964 89.5,15.5C 91.604,15.7989 93.604,15.4656 95.5,14.5C 99.138,13.1929 102.471,11.5262 105.5,9.5C 106.167,9.5 106.5,9.16667 106.5,8.5C 112.105,7.17694 117.771,6.17694 123.5,5.5 Z"/></g>
<g><path style="opacity:1" fill="#ebe9ea" d="M 85.5,128.5 C 89.1378,127.737 90.6378,129.07 90,132.5C 87.482,134.028 85.3153,133.694 83.5,131.5C 84.1925,130.482 84.8592,129.482 85.5,128.5 Z"/></g>
<g><path style="opacity:1" fill="#9b9c9e" d="M 135.5,68.5 C 140.167,68.5 144.833,68.5 149.5,68.5C 150.509,73.7961 150.676,79.1294 150,84.5C 148.667,85.8333 147.333,85.8333 146,84.5C 145.501,80.8484 145.335,77.1817 145.5,73.5C 143.5,73.5 141.5,73.5 139.5,73.5C 139.5,87.8333 139.5,102.167 139.5,116.5C 141.167,116.5 142.833,116.5 144.5,116.5C 144.669,109.813 145.169,103.146 146,96.5C 147.333,95.1667 148.667,95.1667 150,96.5C 150.667,103.833 150.667,111.167 150,118.5C 144.652,122.431 139.319,122.431 134,118.5C 133.333,102.5 133.333,86.5 134,70.5C 134.717,69.9558 135.217,69.2891 135.5,68.5 Z"/></g>
<g><path style="opacity:1" fill="#f5c9c9" d="M 16.5,101.5 C 15.2604,106.41 14.427,111.41 14,116.5C 13.1482,117.571 12.3149,118.571 11.5,119.5C 12.2534,113.142 13.9201,107.142 16.5,101.5 Z"/></g>
<g><path style="opacity:1" fill="#9b9c9d" d="M 109.5,76.5 C 110.117,76.6107 110.617,76.944 111,77.5C 111.667,91.5 111.667,105.5 111,119.5C 109.698,120.085 108.531,120.751 107.5,121.5C 103.454,121.85 99.6203,121.183 96,119.5C 95.3333,108.167 95.3333,96.8333 96,85.5C 99.8294,81.3462 104.329,78.3462 109.5,76.5 Z"/></g>
<g><path style="opacity:1" fill="#9b9b9e" d="M 89.5,89.5 C 90.5,89.5 91.5,89.5 92.5,89.5C 92.6657,93.8461 92.499,98.1794 92,102.5C 90.3196,103.603 88.8196,103.27 87.5,101.5C 80.4018,106.38 81.0685,108.547 89.5,108C 90,108.5 90.5,109 91,109.5C 91.6667,113.167 91.6667,116.833 91,120.5C 84.5898,121.478 78.0898,121.811 71.5,121.5C 71.278,118.61 71.9447,115.943 73.5,113.5C 76.8326,111.748 78.4993,112.748 78.5,116.5C 81.4475,116.777 84.2809,116.444 87,115.5C 87.6838,114.216 87.5171,113.049 86.5,112C 83.5,111.667 80.5,111.333 77.5,111C 76.9415,110.275 76.6082,109.442 76.5,108.5C 79.6519,101.35 83.9852,95.0166 89.5,89.5 Z"/></g>
<g><path style="opacity:1" fill="#9d9e9e" d="M 166.5,72.5 C 167.791,72.2627 168.791,72.596 169.5,73.5C 170.816,89.103 170.816,104.77 169.5,120.5C 167.958,121.747 166.458,121.747 165,120.5C 164.5,111.506 164.334,102.506 164.5,93.5C 162.5,93.5 160.5,93.5 158.5,93.5C 158.818,102.751 158.485,111.917 157.5,121C 156.216,121.684 155.049,121.517 154,120.5C 153.333,103.833 153.333,87.1667 154,70.5C 155.714,69.0745 157.047,69.4078 158,71.5C 158.499,76.8229 158.666,82.1563 158.5,87.5C 160.5,87.5 162.5,87.5 164.5,87.5C 164.334,83.1539 164.501,78.8206 165,74.5C 165.278,73.5842 165.778,72.9175 166.5,72.5 Z"/></g>
<g><path style="opacity:1" fill="#9a9b9d" d="M 192.5,88.5 C 194.017,88.5106 195.184,89.1772 196,90.5C 196.5,99.1603 196.666,107.827 196.5,116.5C 197.833,116.5 199.167,116.5 200.5,116.5C 200.5,110.5 200.5,104.5 200.5,98.5C 202.39,98.2965 203.89,98.9632 205,100.5C 205.499,105.823 205.666,111.156 205.5,116.5C 206.5,116.5 207.5,116.5 208.5,116.5C 208.5,114.833 208.5,113.167 208.5,111.5C 210.124,111.36 211.29,112.027 212,113.5C 212.711,115.899 212.544,118.232 211.5,120.5C 206.858,120.583 202.191,120.916 197.5,121.5C 195.088,121.594 193.255,120.594 192,118.5C 191.193,108.423 191.36,98.4229 192.5,88.5 Z"/></g>
<g><path style="opacity:1" fill="#181a19" d="M 45.5,117.5 C 45.6621,115.473 45.4955,113.473 45,111.5C 43.3196,110.397 41.8196,110.73 40.5,112.5C 40.1667,112 39.8333,111.5 39.5,111C 41.0221,107.338 41.8555,103.505 42,99.5C 42.3333,99.1667 42.6667,98.8333 43,98.5C 43.9087,102.359 46.0754,103.692 49.5,102.5C 51.4098,99.5475 52.4098,96.2142 52.5,92.5C 53.5,92.5 54.5,92.5 55.5,92.5C 55.0111,97.3138 53.0111,101.48 49.5,105C 47.2028,105.018 44.8695,104.851 42.5,104.5C 42.3505,105.552 42.5172,106.552 43,107.5C 47.4531,109.973 48.6198,113.639 46.5,118.5C 45.8933,118.376 45.56,118.043 45.5,117.5 Z"/></g>
<g><path style="opacity:1" fill="#af2e35" d="M 204.5,74.5 C 220.428,88.6761 230.428,106.343 234.5,127.5C 233.768,126.192 232.934,124.858 232,123.5C 231.502,126.482 231.335,129.482 231.5,132.5C 227.353,109.876 216.686,90.8757 199.5,75.5C 201.415,75.7845 203.081,75.4511 204.5,74.5 Z"/></g>
<g><path style="opacity:1" fill="#e5e5e4" d="M 38.5,89.5 C 39.4959,89.4142 40.3292,89.7476 41,90.5C 41.7581,92.7695 41.5914,94.9361 40.5,97C 42.2072,97.1953 43.8739,97.1953 45.5,97C 44.4829,98.0495 44.3162,99.2161 45,100.5C 45.414,100.043 45.914,99.7093 46.5,99.5C 47.548,100.548 48.548,101.548 49.5,102.5C 46.0754,103.692 43.9087,102.359 43,98.5C 42.6667,98.8333 42.3333,99.1667 42,99.5C 41.8555,103.505 41.0221,107.338 39.5,111C 39.8333,111.5 40.1667,112 40.5,112.5C 41.8196,110.73 43.3196,110.397 45,111.5C 45.4955,113.473 45.6621,115.473 45.5,117.5C 44.71,116.391 44.21,115.058 44,113.5C 40.3693,113.873 36.536,114.373 32.5,115C 31.8742,115.75 31.3742,116.584 31,117.5C 29.1616,117.226 27.995,115.726 27.5,113C 27.8361,111.97 28.5028,111.47 29.5,111.5C 30.6591,113.377 32.3258,113.877 34.5,113C 32.5218,110.503 32.0218,107.669 33,104.5C 33.8681,99.4976 36.3681,95.6643 40.5,93C 39.1772,92.1841 38.5106,91.0174 38.5,89.5 Z"/></g>
<g><path style="opacity:1" fill="#212121" d="M 37.5,98.5 C 38.3764,98.3691 39.0431,98.7025 39.5,99.5C 38.9818,102.316 38.1485,104.982 37,107.5C 36.6987,104.493 36.8654,101.493 37.5,98.5 Z"/></g>
<g><path style="opacity:1" fill="#9d9d9f" d="M 180.5,78.5 C 183.414,79.9061 185.914,81.9061 188,84.5C 188.667,96.1667 188.667,107.833 188,119.5C 183.079,122.091 178.245,122.091 173.5,119.5C 173.5,105.167 173.5,90.8333 173.5,76.5C 176.079,76.3939 178.412,77.0605 180.5,78.5 Z"/></g>
<g><path style="opacity:1" fill="#1f1e1f" d="M 38.5,89.5 C 38.5106,91.0174 39.1772,92.1841 40.5,93C 36.3681,95.6643 33.8681,99.4976 33,104.5C 32.0218,107.669 32.5218,110.503 34.5,113C 32.3258,113.877 30.6591,113.377 29.5,111.5C 30.825,108.531 30.825,105.531 29.5,102.5C 33.2201,99.9392 35.3868,96.2725 36,91.5C 36.4169,90.244 37.2502,89.5774 38.5,89.5 Z"/></g>
<g><path style="opacity:1" fill="#9a9b9f" d="M 125.5,69.5 C 127.722,69.178 129.556,69.8446 131,71.5C 131.667,87.1667 131.667,102.833 131,118.5C 128.347,120.941 125.18,121.941 121.5,121.5C 119.036,121.41 116.87,120.743 115,119.5C 114.333,104.833 114.333,90.1667 115,75.5C 115.833,74 117,72.8333 118.5,72C 121.104,71.6097 123.438,70.7763 125.5,69.5 Z"/></g>
<g><path style="opacity:1" fill="#fbfbfc" d="M 178.5,84.5 C 180.39,84.2965 181.89,84.9632 183,86.5C 183.5,96.4944 183.666,106.494 183.5,116.5C 181.833,116.5 180.167,116.5 178.5,116.5C 178.5,105.833 178.5,95.1667 178.5,84.5 Z"/></g>
<g><path style="opacity:1" fill="#f3f3f4" d="M 102.5,85.5 C 103.833,85.5 105.167,85.5 106.5,85.5C 106.666,95.5056 106.5,105.506 106,115.5C 104.333,116.833 102.667,116.833 101,115.5C 100.333,106.167 100.333,96.8333 101,87.5C 101.717,86.9558 102.217,86.2891 102.5,85.5 Z"/></g>
<g><path style="opacity:1" fill="#f5f6f6" d="M 120.5,76.5 C 122.167,76.5 123.833,76.5 125.5,76.5C 125.667,89.5043 125.5,102.504 125,115.5C 123.301,116.406 121.467,116.739 119.5,116.5C 119.186,103.087 119.519,89.7541 120.5,76.5 Z"/></g>
<g><path style="opacity:1" fill="#1d1d1d" d="M 63.5,73.5 C 64.0431,73.56 64.3764,73.8933 64.5,74.5C 63.16,75.6878 62.4934,77.1878 62.5,79C 63.1557,80.9091 63.6557,82.7424 64,84.5C 62.3333,83.5 60.6667,82.5 59,81.5C 58.51,80.2068 58.3433,78.8734 58.5,77.5C 56.1727,77.2471 54.1727,77.9137 52.5,79.5C 51.9204,82.9755 51.0871,86.3088 50,89.5C 49.0565,88.737 48.5565,87.737 48.5,86.5C 49.394,81.5436 49.7274,76.5436 49.5,71.5C 49.33,70.1779 49.6634,69.0113 50.5,68C 54.1864,67.4412 57.853,66.7745 61.5,66C 63.8175,64.0073 66.4842,62.8406 69.5,62.5C 69.67,63.8221 69.3366,64.9887 68.5,66C 63.5721,67.3216 58.5721,68.3216 53.5,69C 52.5769,71.0408 52.2436,73.2075 52.5,75.5C 53.552,75.6495 54.552,75.4828 55.5,75C 59.6622,68.5129 60.6622,68.3462 58.5,74.5C 58.8333,75.1667 59.1667,75.8333 59.5,76.5C 60.8518,75.4756 62.1851,74.4756 63.5,73.5 Z"/></g>
<g><path style="opacity:1" fill="#f6f4f4" d="M 264.5,110.5 C 264.849,115.967 265.849,121.3 267.5,126.5C 266.995,127.919 265.995,128.585 264.5,128.5C 263.012,125.814 262.345,126.147 262.5,129.5C 261.209,129.737 260.209,129.404 259.5,128.5C 260.774,127.811 260.774,126.977 259.5,126C 258.184,125.472 257.517,125.972 257.5,127.5C 256.167,127.5 254.833,127.5 253.5,127.5C 253.719,128.675 253.386,129.675 252.5,130.5C 251.824,129.398 251.158,128.398 250.5,127.5C 249.127,127.343 247.793,127.51 246.5,128C 244.895,131.26 243.561,131.094 242.5,127.5C 242.414,126.504 242.748,125.671 243.5,125C 241.423,123.924 240.09,122.257 239.5,120C 239.639,118.699 240.305,117.866 241.5,117.5C 246.477,118.215 246.644,116.882 242,113.5C 240.498,108.51 239.498,103.51 239,98.5C 240.255,97.7894 241.421,96.956 242.5,96C 242,95.5 241.5,95 241,94.5C 238.681,95.8216 236.514,97.3216 234.5,99C 236.668,102.166 238.002,105.666 238.5,109.5C 238.519,113.294 237.519,116.794 235.5,120C 239.018,123.81 239.018,127.31 235.5,130.5C 234.89,129.609 234.557,128.609 234.5,127.5C 230.428,106.343 220.428,88.6761 204.5,74.5C 189.423,61.1343 171.756,53.4676 151.5,51.5C 148.518,50.8351 145.352,50.5018 142,50.5C 136.266,50.4149 130.766,51.0816 125.5,52.5C 123.102,52.2594 121.102,52.9261 119.5,54.5C 116.053,54.8143 112.72,55.6476 109.5,57C 94.3516,63.661 81.3516,73.161 70.5,85.5C 70.5,84.1667 70.5,82.8333 70.5,81.5C 71.5,81.5 72.5,81.5 73.5,81.5C 73.4208,80.0695 73.7542,78.7362 74.5,77.5C 77.6397,75.527 80.6397,73.3603 83.5,71C 82.5,70.6667 81.5,70.3333 80.5,70C 82.6193,69.9024 84.286,69.0691 85.5,67.5C 84.1738,66.3578 83.1738,65.0245 82.5,63.5C 83.552,63.6495 84.552,63.4828 85.5,63C 87.5175,60.5681 90.0175,58.7348 93,57.5C 92.8481,54.553 92.6815,51.553 92.5,48.5C 89.9373,49.1999 87.4373,50.1999 85,51.5C 81.8634,50.0551 81.6967,48.2217 84.5,46C 86.9803,45.04 89.4803,44.2066 92,43.5C 92.7805,42.0563 92.6139,40.723 91.5,39.5C 89.6414,41.1924 87.6414,42.6924 85.5,44C 82.208,44.9357 79.208,44.4357 76.5,42.5C 75.8153,44.7808 75.6487,47.1141 76,49.5C 73.4375,51.346 71.2708,53.5127 69.5,56C 69.6135,57.2798 70.2801,58.1131 71.5,58.5C 73.2878,56.2092 75.2878,54.0425 77.5,52C 79.2373,51.3877 80.2373,52.0543 80.5,54C 79.5,55.6667 78.5,57.3333 77.5,59C 77.7432,59.9021 78.0766,60.7354 78.5,61.5C 76.6214,61.3932 76.2881,61.8932 77.5,63C 76.4642,64.6169 75.2975,64.7836 74,63.5C 73.51,64.7932 73.3433,66.1266 73.5,67.5C 69.9007,67.2619 69.5673,68.2619 72.5,70.5C 71.0663,71.2298 69.8996,72.2298 69,73.5C 68.3162,72.2161 68.4829,71.0495 69.5,70C 68.175,70.1484 67.0084,69.9817 66,69.5C 64.9054,70.6934 64.072,72.0267 63.5,73.5C 62.1851,74.4756 60.8518,75.4756 59.5,76.5C 59.1667,75.8333 58.8333,75.1667 58.5,74.5C 60.6622,68.3462 59.6622,68.5129 55.5,75C 54.552,75.4828 53.552,75.6495 52.5,75.5C 52.2436,73.2075 52.5769,71.0408 53.5,69C 58.5721,68.3216 63.5721,67.3216 68.5,66C 69.3366,64.9887 69.67,63.8221 69.5,62.5C 66.4842,62.8406 63.8175,64.0073 61.5,66C 57.853,66.7745 54.1864,67.4412 50.5,68C 49.6634,69.0113 49.33,70.1779 49.5,71.5C 48.1779,71.67 47.0113,71.3366 46,70.5C 44.9698,72.7764 43.4698,73.4431 41.5,72.5C 40.6733,74.162 39.5067,75.4954 38,76.5C 37.5172,77.448 37.3505,78.448 37.5,79.5C 36.5,79.5 35.5,79.5 34.5,79.5C 68.0048,28.096 115.005,8.596 175.5,21C 221.413,34.7463 251.08,64.5796 264.5,110.5 Z"/></g>
<g><path style="opacity:1" fill="#6e6c6e" d="M 259.5,128.5 C 258.833,128.167 258.167,127.833 257.5,127.5C 257.517,125.972 258.184,125.472 259.5,126C 260.774,126.977 260.774,127.811 259.5,128.5 Z"/></g>
<g><path style="opacity:1" fill="#1b1a1a" d="M 241.5,117.5 C 240.082,114.939 239.082,112.272 238.5,109.5C 238.002,105.666 236.668,102.166 234.5,99C 236.514,97.3216 238.681,95.8216 241,94.5C 241.5,95 242,95.5 242.5,96C 241.421,96.956 240.255,97.7894 239,98.5C 239.498,103.51 240.498,108.51 242,113.5C 246.644,116.882 246.477,118.215 241.5,117.5 Z"/></g>
<g><path style="opacity:1" fill="#888888" d="M 246.5,110.5 C 250.31,111.754 250.31,112.754 246.5,113.5C 246.5,112.5 246.5,111.5 246.5,110.5 Z"/></g>
<g><path style="opacity:1" fill="#171717" d="M 243.5,102.5 C 246.548,102.494 247.048,103.494 245,105.5C 243.961,104.756 243.461,103.756 243.5,102.5 Z"/></g>
<g><path style="opacity:1" fill="#222223" d="M 247.5,96.5 C 249.412,98.9558 251.245,101.622 253,104.5C 253.749,105.635 253.583,106.635 252.5,107.5C 249.11,104.68 247.443,101.014 247.5,96.5 Z"/></g>
<g><path style="opacity:1" fill="#19191a" d="M 227.5,69.5 C 231.074,68.9079 233.074,70.4079 233.5,74C 234.938,74.2189 236.271,74.7189 237.5,75.5C 236.404,77.5128 236.737,79.3461 238.5,81C 237.468,84.2546 235.468,85.088 232.5,83.5C 233.737,82.7193 234.737,81.7193 235.5,80.5C 233.833,79.8333 232.167,79.1667 230.5,78.5C 232.224,74.3878 230.89,72.8878 226.5,74C 224.987,80.1574 226.987,84.9907 232.5,88.5C 230.647,89.7596 228.814,89.7596 227,88.5C 225.205,84.9484 223.705,81.2817 222.5,77.5C 224.184,74.8223 225.85,72.1556 227.5,69.5 Z"/></g>
<g><path style="opacity:1" fill="#b2232a" d="M 151.5,51.5 C 171.756,53.4676 189.423,61.1343 204.5,74.5C 203.081,75.4511 201.415,75.7845 199.5,75.5C 189.779,68.127 179.113,62.4604 167.5,58.5C 165.122,56.0795 162.122,54.9128 158.5,55C 148.167,54.6667 137.833,54.3333 127.5,54C 128.737,53.7679 129.737,53.2679 130.5,52.5C 137.457,51.6136 144.457,51.2803 151.5,51.5 Z"/></g>
<g><path style="opacity:1" fill="#1b1a1a" d="M 220.5,62.5 C 222.604,62.2011 224.604,62.5344 226.5,63.5C 224.404,66.9372 222.237,70.2706 220,73.5C 217.126,72.4678 215.626,70.4678 215.5,67.5C 217.167,67.5 218.833,67.5 220.5,67.5C 220.5,65.8333 220.5,64.1667 220.5,62.5 Z"/></g>
<g><path style="opacity:1" fill="#1e1d1d" d="M 82.5,63.5 C 81.1667,62.8333 79.8333,62.1667 78.5,61.5C 78.0766,60.7354 77.7432,59.9021 77.5,59C 78.5,57.3333 79.5,55.6667 80.5,54C 80.2373,52.0543 79.2373,51.3877 77.5,52C 75.2878,54.0425 73.2878,56.2092 71.5,58.5C 70.2801,58.1131 69.6135,57.2798 69.5,56C 71.2708,53.5127 73.4375,51.346 76,49.5C 75.6487,47.1141 75.8153,44.7808 76.5,42.5C 79.208,44.4357 82.208,44.9357 85.5,44C 87.6414,42.6924 89.6414,41.1924 91.5,39.5C 92.6139,40.723 92.7805,42.0563 92,43.5C 89.4803,44.2066 86.9803,45.04 84.5,46C 81.6967,48.2217 81.8634,50.0551 85,51.5C 87.4373,50.1999 89.9373,49.1999 92.5,48.5C 92.6815,51.553 92.8481,54.553 93,57.5C 90.0175,58.7348 87.5175,60.5681 85.5,63C 84.552,63.4828 83.552,63.6495 82.5,63.5 Z"/></g>
<g><path style="opacity:1" fill="#ab3232" d="M 125.5,52.5 C 127.167,52.5 128.833,52.5 130.5,52.5C 129.737,53.2679 128.737,53.7679 127.5,54C 137.833,54.3333 148.167,54.6667 158.5,55C 162.122,54.9128 165.122,56.0795 167.5,58.5C 151.597,54.838 135.597,54.5046 119.5,57.5C 121.389,56.678 123.389,55.8447 125.5,55C 123.527,54.5045 121.527,54.3379 119.5,54.5C 121.102,52.9261 123.102,52.2594 125.5,52.5 Z"/></g>
<g><path style="opacity:1" fill="#f3f1f2" d="M 84.5,54.5 C 86.288,54.2148 87.9547,54.5481 89.5,55.5C 87.4408,58.1934 84.7741,59.8601 81.5,60.5C 81.615,58.0532 82.615,56.0532 84.5,54.5 Z"/></g>
<g><path style="opacity:1" fill="#1e1e1f" d="M 199.5,38.5 C 203.005,40.4181 206.338,42.5847 209.5,45C 209.333,45.5 209.167,46 209,46.5C 207.301,45.5939 205.467,45.2606 203.5,45.5C 203.429,48.0241 204.429,50.0241 206.5,51.5C 204.997,52.0522 203.331,52.0522 201.5,51.5C 202.659,56.8206 204.659,61.8206 207.5,66.5C 204.871,68.0504 203.037,67.3838 202,64.5C 200.842,60.2246 200.008,55.8913 199.5,51.5C 197.09,52.3886 194.59,53.0552 192,53.5C 189.383,53.8727 187.55,52.8727 186.5,50.5C 190.167,49.8333 193.833,49.1667 197.5,48.5C 196.855,47.354 196.022,46.354 195,45.5C 194.949,41.8088 196.116,41.6421 198.5,45C 200.074,45.6987 201.407,45.3654 202.5,44C 200.393,42.7365 199.393,40.9032 199.5,38.5 Z"/></g>
<g><path style="opacity:1" fill="#c06a6d" d="M 151.5,51.5 C 144.457,51.2803 137.457,51.6136 130.5,52.5C 128.833,52.5 127.167,52.5 125.5,52.5C 130.766,51.0816 136.266,50.4149 142,50.5C 145.352,50.5018 148.518,50.8351 151.5,51.5 Z"/></g>
<g><path style="opacity:1" fill="#1a1c1a" d="M 109.5,43.5 C 110.376,43.3691 111.043,43.7025 111.5,44.5C 110.669,47.6716 108.669,49.3383 105.5,49.5C 105.657,46.6824 106.991,44.6824 109.5,43.5 Z"/></g>
<g><path style="opacity:1" fill="#1e1e1e" d="M 104.5,38.5 C 105.791,38.2627 106.791,38.596 107.5,39.5C 106.393,40.9923 104.893,41.9923 103,42.5C 100.091,40.7634 100.591,39.4301 104.5,38.5 Z"/></g>
<g><path style="opacity:1" fill="#1c1b1c" d="M 167.5,22.5 C 168.922,22.7496 169.922,23.583 170.5,25C 172.995,25.1575 175.328,25.3241 177.5,25.5C 177.833,26.1667 178.167,26.8333 178.5,27.5C 176.922,28.2978 175.256,28.7978 173.5,29C 174.328,29.9147 175.328,30.5814 176.5,31C 171.52,31.526 171.187,33.026 175.5,35.5C 175.167,36.1667 174.833,36.8333 174.5,37.5C 175.797,40.6307 177.964,42.964 181,44.5C 181.483,45.448 181.649,46.448 181.5,47.5C 180.127,47.6567 178.793,47.49 177.5,47C 176.428,44.3458 174.761,42.1791 172.5,40.5C 167.754,43.1205 167.421,46.1205 171.5,49.5C 169.877,50.4756 168.543,49.9756 167.5,48C 164.854,47.5026 162.187,47.3359 159.5,47.5C 160.139,45.2396 161.306,43.2396 163,41.5C 163.49,40.2068 163.657,38.8734 163.5,37.5C 159.899,38.4633 156.233,39.13 152.5,39.5C 152.5,38.5 152.5,37.5 152.5,36.5C 155.187,36.6641 157.854,36.4974 160.5,36C 162.037,34.8904 162.703,33.3904 162.5,31.5C 164.604,31.7989 166.604,31.4656 168.5,30.5C 167.624,29.7492 166.624,29.2492 165.5,29C 166.91,28.6322 167.91,27.7989 168.5,26.5C 166.833,25.8333 165.167,25.1667 163.5,24.5C 164.949,23.8281 166.282,23.1614 167.5,22.5 Z"/></g>
<g><path style="opacity:1" fill="#ecebec" d="M 163.5,43.5 C 164.675,43.281 165.675,43.6143 166.5,44.5C 164.948,45.7979 163.948,45.4646 163.5,43.5 Z"/></g>
<g><path style="opacity:1" fill="#eae8e9" d="M 165.5,39.5 C 166.675,39.281 167.675,39.6143 168.5,40.5C 166.948,41.7979 165.948,41.4646 165.5,39.5 Z"/></g>
<g><path style="opacity:1" fill="#a4a5a5" d="M 104.5,38.5 C 105.919,37.5489 107.585,37.2155 109.5,37.5C 111.265,38.4614 113.265,38.7947 115.5,38.5C 115.5,40.1667 115.5,41.8333 115.5,43.5C 114.566,42.4324 114.232,41.099 114.5,39.5C 112.167,39.5 109.833,39.5 107.5,39.5C 106.791,38.596 105.791,38.2627 104.5,38.5 Z"/></g>
<g><path style="opacity:1" fill="#d1cfd0" d="M 166.5,36.5 C 167.675,36.281 168.675,36.6143 169.5,37.5C 167.948,38.7979 166.948,38.4646 166.5,36.5 Z"/></g>
<g><path style="opacity:1" fill="#1f1f1f" d="M 115.5,43.5 C 115.5,41.8333 115.5,40.1667 115.5,38.5C 113.265,38.7947 111.265,38.4614 109.5,37.5C 119.165,35.6024 119.498,33.6024 110.5,31.5C 113.888,30.6519 116.221,28.6519 117.5,25.5C 119.988,26.688 122.322,28.0213 124.5,29.5C 122.851,30.1476 121.518,31.1476 120.5,32.5C 124.521,33.0126 128.521,33.346 132.5,33.5C 132.291,34.086 131.957,34.586 131.5,35C 124.667,34.3123 123,36.8123 126.5,42.5C 124.171,46.2518 120.837,47.4185 116.5,46C 115.748,45.3292 115.414,44.4959 115.5,43.5 Z"/></g>
<g><path style="opacity:1" fill="#eaeaea" d="M 118.5,37.5 C 121.833,37.5 123.5,39.1667 123.5,42.5C 121.5,42.5 119.5,42.5 117.5,42.5C 117.366,40.7085 117.699,39.0418 118.5,37.5 Z"/></g>
<g><path style="opacity:1" fill="#dbd9da" d="M 166.5,33.5 C 167.978,33.238 169.311,33.5713 170.5,34.5C 169.833,34.8333 169.167,35.1667 168.5,35.5C 167.287,35.2528 166.62,34.5862 166.5,33.5 Z"/></g>
<g><path style="opacity:1" fill="#1b1a1b" d="M 102.5,31.5 C 103.833,31.5 105.167,31.5 106.5,31.5C 106.114,35.7376 104.448,36.4043 101.5,33.5C 101.863,32.8165 102.196,32.1499 102.5,31.5 Z"/></g>
<g><path style="opacity:1" fill="#1d1d1d" d="M 103.5,242.5 C 105.635,242.147 106.968,242.98 107.5,245C 105.616,248.606 105.282,252.273 106.5,256C 107.635,256.749 108.635,256.583 109.5,255.5C 110.909,252.273 111.909,248.94 112.5,245.5C 114.484,245.383 116.15,246.05 117.5,247.5C 116.293,251.287 114.793,254.954 113,258.5C 108.653,260.849 104.653,260.183 101,256.5C 100.26,251.552 101.094,246.885 103.5,242.5 Z"/></g>
<g><path style="opacity:1" fill="#1d1d1d" d="M 138.5,265.5 C 136.393,264.532 134.059,264.198 131.5,264.5C 131.5,262.833 131.5,261.167 131.5,259.5C 131.5,256.167 131.5,252.833 131.5,249.5C 133.167,249.5 134.833,249.5 136.5,249.5C 135.979,253.481 135.646,257.481 135.5,261.5C 138.167,261.5 140.833,261.5 143.5,261.5C 143.5,262.833 143.5,264.167 143.5,265.5C 141.833,265.5 140.167,265.5 138.5,265.5 Z"/></g>
<g><path style="opacity:1" fill="#ae2528" d="M 280.5,129.5 C 281.461,131.265 281.795,133.265 281.5,135.5C 282.288,151.378 280.955,167.045 277.5,182.5C 265.957,221.681 242.623,251.347 207.5,271.5C 196.41,276.638 185.077,280.972 173.5,284.5C 171.5,284.5 169.5,284.5 167.5,284.5C 171.071,283.172 174.738,281.838 178.5,280.5C 174.963,280.218 171.296,280.218 167.5,280.5C 181.255,277.136 194.588,272.302 207.5,266C 247.246,241.354 270.579,205.854 277.5,159.5C 277.337,161.857 277.503,164.19 278,166.5C 278.333,165.833 278.667,165.167 279,164.5C 280.193,152.864 280.693,141.197 280.5,129.5 Z"/></g>
<g><path style="opacity:1" fill="#1b1a1a" d="M 118.5,246.5 C 120.844,246.506 122.178,247.673 122.5,250C 121.75,253.163 121.084,256.33 120.5,259.5C 122.806,259.993 125.139,260.326 127.5,260.5C 127.762,261.978 127.429,263.311 126.5,264.5C 122.895,263.51 119.228,262.844 115.5,262.5C 116.286,257.118 117.286,251.784 118.5,246.5 Z"/></g>
<g><path style="opacity:1" fill="#1d1b1c" d="M 154.5,248.5 C 157.518,248.335 160.518,248.502 163.5,249C 166.079,251.438 165.413,252.938 161.5,253.5C 159.684,250.936 157.851,250.936 156,253.5C 154.703,257.175 155.703,259.842 159,261.5C 163.111,260.311 163.278,259.311 159.5,258.5C 159.281,257.325 159.614,256.325 160.5,255.5C 162.409,254.652 164.409,254.318 166.5,254.5C 167.046,262.98 163.046,266.146 154.5,264C 149.209,258.759 149.209,253.592 154.5,248.5 Z"/></g>
<g><path style="opacity:1" fill="#717171" d="M 131.5,259.5 C 131.5,261.167 131.5,262.833 131.5,264.5C 134.059,264.198 136.393,264.532 138.5,265.5C 135.833,265.5 133.167,265.5 130.5,265.5C 130.205,263.265 130.539,261.265 131.5,259.5 Z"/></g>
<g><path style="opacity:1" fill="#f9dede" d="M 207.5,271.5 C 207.719,272.675 207.386,273.675 206.5,274.5C 204.618,275.093 202.785,275.76 201,276.5C 200.517,277.448 200.351,278.448 200.5,279.5C 196.123,279.577 191.79,280.077 187.5,281C 183.437,284.035 178.771,285.202 173.5,284.5C 185.077,280.972 196.41,276.638 207.5,271.5 Z"/></g>
<g><path style="opacity:1" fill="#c91d29" d="M 111.5,279.5 C 118.112,280.827 124.778,281.827 131.5,282.5C 140.657,283.658 149.991,283.824 159.5,283C 162.104,282.61 164.438,281.776 166.5,280.5C 166.833,280.5 167.167,280.5 167.5,280.5C 171.296,280.218 174.963,280.218 178.5,280.5C 174.738,281.838 171.071,283.172 167.5,284.5C 148.029,286.363 128.695,285.53 109.5,282C 105.826,279.843 106.493,279.01 111.5,279.5 Z"/></g>
<g><path style="opacity:1" fill="#a13132" d="M 166.5,280.5 C 164.438,281.776 162.104,282.61 159.5,283C 149.991,283.824 140.657,283.658 131.5,282.5C 143.236,282.816 154.903,282.149 166.5,280.5 Z"/></g>
</svg>
